<svg id="Layer_1" data-name="Layer 1" xmlns="http://www.w3.org/2000/svg" xmlns:xlink="http://www.w3.org/1999/xlink" viewBox="0 0 792 612"><defs><style>.cls-1{fill:#37a6de;fill-rule:evenodd;}.cls-2,.cls-20,.cls-5,.cls-6,.cls-7{fill:#17508e;}.cls-10,.cls-11,.cls-2,.cls-20,.cls-3,.cls-4,.cls-5,.cls-6,.cls-8,.cls-9{stroke:#17508e;}.cls-10,.cls-11,.cls-2,.cls-20,.cls-30,.cls-32,.cls-33,.cls-34,.cls-35,.cls-37,.cls-38,.cls-39,.cls-4,.cls-40,.cls-41,.cls-5,.cls-6,.cls-8,.cls-9{stroke-miterlimit:10;}.cls-2,.cls-30,.cls-37{stroke-width:0.75px;}.cls-3,.cls-31,.cls-32,.cls-4{fill:none;}.cls-3,.cls-31{stroke-linecap:round;stroke-linejoin:round;}.cls-3,.cls-31,.cls-32,.cls-38,.cls-4,.cls-8{stroke-width:2px;}.cls-33,.cls-5{stroke-width:0.5px;}.cls-10,.cls-11,.cls-38,.cls-39,.cls-40,.cls-8{fill:#fff;}.cls-30,.cls-33,.cls-34,.cls-36,.cls-41,.cls-9{fill:#38a6de;}.cls-10,.cls-39{stroke-width:1.5px;}.cls-12{font-size:10px;fill:#5f6060;font-family:Roboto-Light, Roboto;font-weight:300;}.cls-13{letter-spacing:-0.02em;}.cls-14{letter-spacing:0em;}.cls-15{letter-spacing:-0.01em;}.cls-16{letter-spacing:-0.02em;}.cls-17{letter-spacing:-0.01em;}.cls-18{letter-spacing:0em;}.cls-19{letter-spacing:0.01em;}.cls-20,.cls-41{stroke-width:0.25px;}.cls-21{letter-spacing:-0.01em;}.cls-22{letter-spacing:0.01em;}.cls-23{letter-spacing:-0.01em;}.cls-24{letter-spacing:-0.01em;}.cls-25{letter-spacing:-0.02em;}.cls-26{letter-spacing:-0.01em;}.cls-27{letter-spacing:0.02em;}.cls-28{letter-spacing:-0.04em;}.cls-29{letter-spacing:-0.01em;}.cls-30,.cls-31,.cls-32,.cls-33,.cls-34,.cls-35,.cls-37,.cls-38,.cls-39,.cls-40,.cls-41{stroke:#38a6de;}.cls-35,.cls-37{fill:#959595;}</style></defs><polygon class="cls-1" points="14.63 17.9 781.07 17.9 781.07 73.14 14.63 73.14 14.63 17.9 14.63 17.9"/><image width="678" height="159" transform="translate(25.61 27.06) scale(0.24)" xlink:href="../../../../TelWare%20Corporation/Marketing%20-%20Documents/Our%20Products%20(HDMeet,%20OneCloud,%20SecureFax)/OneCloud/OneCloud%20Logos/New%202021%20Logos/ONECLOUD%20LOGOS%20FOR%20MARKETING/OneCloud_LOGO-White.png"/><path class="cls-2" d="M75.53,351.23,55,331.75a.76.76,0,0,0-1.06,0L34.11,351.24a.76.76,0,1,0,1.07,1.08l19.33-19,20,19a.77.77,0,0,0,.53.21.76.76,0,0,0,.52-1.31Z"/><path class="cls-2" d="M68.7,368.54H60V356.19a.76.76,0,0,0-.76-.76H50.06a.76.76,0,0,0-.76.76v12.35H40.63V350.16H39.11V369.3a.76.76,0,0,0,.76.76H50.06a.76.76,0,0,0,.76-.76V357h7.69V369.3a.76.76,0,0,0,.77.76H69.46a.76.76,0,0,0,.76-.76V350.16H68.7Z"/><path class="cls-2" d="M42.4,333.1h3.31v3.65l1.49-1.5v-2.9a.74.74,0,0,0-.74-.74H41.65a.74.74,0,0,0-.74.74v9.24l1.49-1.5Z"/><path class="cls-3" d="M124.05,349.23h.84a0,0,0,0,1,0,0V361.1a0,0,0,0,1,0,0h-.84a5.94,5.94,0,0,1-5.94-5.94v0A5.94,5.94,0,0,1,124.05,349.23Z"/><path class="cls-3" d="M126.62,362.83h0a1.73,1.73,0,0,1-1.73-1.74V349.25a1.73,1.73,0,0,1,1.73-1.74h0a1.74,1.74,0,0,1,1.74,1.74v11.84A1.74,1.74,0,0,1,126.62,362.83Z"/><path class="cls-3" d="M157.24,349.23h.84a0,0,0,0,1,0,0V361.1a0,0,0,0,1,0,0h-.84a5.94,5.94,0,0,1-5.94-5.94v0A5.94,5.94,0,0,1,157.24,349.23Z" transform="translate(309.39 710.34) rotate(-180)"/><path class="cls-3" d="M149.57,362.83h0a1.74,1.74,0,0,0,1.74-1.74V349.25a1.74,1.74,0,0,0-1.74-1.74h0a1.73,1.73,0,0,0-1.73,1.74v11.84A1.73,1.73,0,0,0,149.57,362.83Z"/><path class="cls-3" d="M154.49,347.32a16.17,16.17,0,1,0-32.33,0"/><path class="cls-3" d="M154.49,362.91h0a6.81,6.81,0,0,1-6.81,6.81h-4.33"/><path class="cls-3" d="M141.36,367.73h-3a2,2,0,0,0-2,2h0a2,2,0,0,0,2,2h3a2,2,0,0,0,2-2h0A2,2,0,0,0,141.36,367.73Z"/><path class="cls-4" d="M217.51,353h-3.1l-6.59,8.79c-.94,1.25-2.73.49-2.73-1.16V353h-1.56a3.35,3.35,0,0,1-3.1-3.56V335.2a3.35,3.35,0,0,1,3.1-3.55h24.85a3.35,3.35,0,0,1,3.11,3.55v10.66"/><path class="cls-5" d="M246,370.49h-23.1a4.62,4.62,0,0,1-4.62-4.62V351.19a4.62,4.62,0,0,1,4.62-4.62H246a4.62,4.62,0,0,1,4.62,4.62v14.68A4.62,4.62,0,0,1,246,370.49Zm-23.1-22.72a3.42,3.42,0,0,0-3.42,3.42v14.68a3.43,3.43,0,0,0,3.42,3.42H246a3.42,3.42,0,0,0,3.41-3.42V351.19a3.42,3.42,0,0,0-3.41-3.42Z"/><path class="cls-6" d="M234.5,362a.68.68,0,0,1-.41-.14l-14.85-12.66a.54.54,0,0,1,0-.79.63.63,0,0,1,.85,0L234.5,360.7l14.29-12a.64.64,0,0,1,.85.05.53.53,0,0,1,0,.79L234.9,361.87A.67.67,0,0,1,234.5,362Z"/><path class="cls-6" d="M220.37,369.72a.5.5,0,0,1-.38-.19.65.65,0,0,1,0-.83l10-10.47a.48.48,0,0,1,.73,0,.65.65,0,0,1,0,.83l-10,10.46A.44.44,0,0,1,220.37,369.72Z"/><path class="cls-6" d="M248.52,369.72a.46.46,0,0,1-.35-.16l-10-10.46a.65.65,0,0,1,0-.83.46.46,0,0,1,.72,0l10,10.46a.65.65,0,0,1,0,.83A.52.52,0,0,1,248.52,369.72Z"/><circle class="cls-7" cx="208.65" cy="341.43" r="1.14"/><circle class="cls-7" cx="213.65" cy="341.39" r="1.14"/><circle class="cls-7" cx="218.21" cy="341.39" r="1.14"/><circle class="cls-7" cx="222.77" cy="341.39" r="1.14"/><path class="cls-7" d="M296.77,351a2.13,2.13,0,0,1,2.12,2.12v1.52a2.13,2.13,0,0,1-2.12,2.12h0a2.13,2.13,0,0,1-2.12-2.12v-1.52a2.13,2.13,0,0,1,2.12-2.12h0m0-1.6a3.73,3.73,0,0,0-3.72,3.72v1.52a3.72,3.72,0,0,0,7.44,0v-1.52a3.73,3.73,0,0,0-3.72-3.72Z"/><path class="cls-7" d="M299.45,358.27a2.55,2.55,0,0,1,2.54,2.55V363a.56.56,0,0,1-.56.56h-9.32a.56.56,0,0,1-.56-.56v-2.2a2.55,2.55,0,0,1,2.55-2.55h5.35m0-1.61H294.1a4.17,4.17,0,0,0-4.16,4.16V363a2.17,2.17,0,0,0,2.17,2.16h9.32A2.17,2.17,0,0,0,303.6,363v-2.2a4.16,4.16,0,0,0-4.15-4.16Z"/><path class="cls-7" d="M311.26,357.27a2.13,2.13,0,0,1,2.12,2.12v1.52a2.12,2.12,0,0,1-4.24,0v-1.52a2.12,2.12,0,0,1,2.12-2.12m0-1.6a3.73,3.73,0,0,0-3.72,3.72v1.52a3.72,3.72,0,0,0,7.44,0v-1.52a3.73,3.73,0,0,0-3.72-3.72Z"/><path class="cls-7" d="M313.93,364.54a2.56,2.56,0,0,1,2.55,2.55v2.2a.56.56,0,0,1-.56.56H306.6a.56.56,0,0,1-.56-.56v-2.2a2.55,2.55,0,0,1,2.55-2.55h5.34m0-1.6h-5.34a4.15,4.15,0,0,0-4.16,4.15v2.2a2.17,2.17,0,0,0,2.17,2.17h9.32a2.17,2.17,0,0,0,2.17-2.17v-2.2a4.16,4.16,0,0,0-4.16-4.15Z"/><path class="cls-7" d="M325.75,351a2.13,2.13,0,0,1,2.12,2.12v1.52a2.12,2.12,0,0,1-4.24,0v-1.52a2.13,2.13,0,0,1,2.12-2.12m0-1.6a3.73,3.73,0,0,0-3.72,3.72v1.52a3.72,3.72,0,0,0,7.44,0v-1.52a3.73,3.73,0,0,0-3.72-3.72Z"/><path class="cls-7" d="M328.42,358.27a2.55,2.55,0,0,1,2.55,2.55V363a.56.56,0,0,1-.56.56h-9.32a.56.56,0,0,1-.56-.56v-2.2a2.55,2.55,0,0,1,2.55-2.55h5.34m0-1.61h-5.34a4.17,4.17,0,0,0-4.16,4.16V363a2.17,2.17,0,0,0,2.17,2.16h9.32a2.17,2.17,0,0,0,2.17-2.16v-2.2a4.17,4.17,0,0,0-4.16-4.16Z"/><path class="cls-7" d="M323.68,347.67a.56.56,0,0,1-.86.14l-2.63-2.38a.84.84,0,0,1-.12-1,.55.55,0,0,1,.86-.15l2.63,2.39A.84.84,0,0,1,323.68,347.67Z"/><path class="cls-7" d="M311.53,331.73a2.13,2.13,0,0,1,2.12,2.12v1.52a2.12,2.12,0,0,1-4.24,0v-1.52a2.12,2.12,0,0,1,2.12-2.12m0-1.6a3.73,3.73,0,0,0-3.72,3.72v1.52a3.72,3.72,0,0,0,7.44,0v-1.52a3.73,3.73,0,0,0-3.72-3.72Z"/><path class="cls-7" d="M314.2,339a2.56,2.56,0,0,1,2.55,2.55v2.2a.57.57,0,0,1-.56.57h-9.32a.57.57,0,0,1-.56-.57v-2.2a2.55,2.55,0,0,1,2.54-2.55h5.35m0-1.6h-5.35a4.15,4.15,0,0,0-4.15,4.15v2.2a2.17,2.17,0,0,0,2.17,2.17h9.32a2.17,2.17,0,0,0,2.17-2.17v-2.2a4.16,4.16,0,0,0-4.16-4.15Z"/><path class="cls-7" d="M298.55,347.76a.54.54,0,0,0,.85.14l2.63-2.38a.83.83,0,0,0,.12-1,.54.54,0,0,0-.85-.15l-2.63,2.38A.84.84,0,0,0,298.55,347.76Z"/><path class="cls-7" d="M311.26,353.09a.68.68,0,0,1-.72-.63v-3.37a.73.73,0,0,1,1.44,0v3.37A.68.68,0,0,1,311.26,353.09Z"/><path class="cls-2" d="M412.12,362.25s0,0,0-.05a2.47,2.47,0,0,0-1.13-1.67l-6.8-4.44L404,356a2.65,2.65,0,0,0-1.17-.29,2.92,2.92,0,0,0-2,.65l0,0-2.12,2h-.05l-.32-.08a4.52,4.52,0,0,1-1.12-.52,15.62,15.62,0,0,1-2-1.39,22.71,22.71,0,0,1-2.71-2.66,22.22,22.22,0,0,1-2.37-2.91,15.2,15.2,0,0,1-1.2-2.09,6.64,6.64,0,0,1-.51-1.5l0,0v0l1.81-1.66a2.91,2.91,0,0,0,.86-1.44,2.38,2.38,0,0,0-.16-1.71l-3.54-7.52,0,0a3.08,3.08,0,0,0-.73-.87,2,2,0,0,0-1.2-.46,2.24,2.24,0,0,0-1.64.62l-5,4.58a3.28,3.28,0,0,0-.81,1,4.16,4.16,0,0,0-.44,1.2s0,.06,0,.09,0,.29-.07.69a9.58,9.58,0,0,0,.07,1.93,19,19,0,0,0,.58,2.85,23.85,23.85,0,0,0,1.4,3.68,35.16,35.16,0,0,0,2.53,4.42,41.27,41.27,0,0,0,4,5.05A39.42,39.42,0,0,0,392,365a32.77,32.77,0,0,0,5,3.05,17.22,17.22,0,0,0,3.86,1.38,16.91,16.91,0,0,0,2.31.35h.69a.27.27,0,0,0,.09,0,4.16,4.16,0,0,0,1.24-.33,3.37,3.37,0,0,0,1.07-.7l5-4.55A2.32,2.32,0,0,0,412.12,362.25Zm-1.65,1-5,4.56,0,0a2.15,2.15,0,0,1-.68.43,2.65,2.65,0,0,1-.83.23h-.62a15.82,15.82,0,0,1-2.12-.33,16.11,16.11,0,0,1-3.56-1.28,30.66,30.66,0,0,1-4.83-2.94,36.79,36.79,0,0,1-5.68-5.25,39.53,39.53,0,0,1-3.92-4.89,34.54,34.54,0,0,1-2.44-4.25,21.87,21.87,0,0,1-1.32-3.48,19.38,19.38,0,0,1-.55-2.65,8.33,8.33,0,0,1-.06-1.66c0-.36.06-.59.07-.7a2.71,2.71,0,0,1,.3-.8,2.1,2.1,0,0,1,.52-.65l5-4.6a1,1,0,0,1,.72-.29.67.67,0,0,1,.44.17,1.9,1.9,0,0,1,.43.5l3.53,7.51a1.12,1.12,0,0,1,.08.83,1.66,1.66,0,0,1-.48.81l-1.86,1.7a1.27,1.27,0,0,0-.3.47,1.86,1.86,0,0,0-.11.47.49.49,0,0,0,0,.12,7.07,7.07,0,0,0,.62,1.94,16.51,16.51,0,0,0,1.29,2.27,25.7,25.7,0,0,0,2.5,3.07,23.44,23.44,0,0,0,2.86,2.79,17.66,17.66,0,0,0,2.14,1.51,6.07,6.07,0,0,0,1.44.65l.45.11.12,0a1.77,1.77,0,0,0,.45-.07,1.39,1.39,0,0,0,.5-.26l2.14-2a1.55,1.55,0,0,1,1.09-.36,1.35,1.35,0,0,1,.65.16l.14.07,6.68,4.37a1.15,1.15,0,0,1,.58.78A1,1,0,0,1,410.47,363.25Z"/><path class="cls-2" d="M401,349.47l1.58-.56a6.58,6.58,0,0,0-5.46-5.28l-.6,1.6a4.9,4.9,0,0,1,3.25,1.58A4.75,4.75,0,0,1,401,349.47Z"/><path class="cls-2" d="M406.14,340.63a14,14,0,0,1,3.08,5.55l1.54-.56a15.07,15.07,0,0,0-10.44-10.41l-.58,1.53A13.28,13.28,0,0,1,406.14,340.63Z"/><path class="cls-2" d="M403.18,343.55a8.4,8.4,0,0,1,2.2,3.88l1.58-.52a10,10,0,0,0-2.55-4.42,11.25,11.25,0,0,0-5.52-3l-.59,1.46A9.36,9.36,0,0,1,403.18,343.55Z"/><circle class="cls-8" cx="377.41" cy="341.59" r="6.38"/><rect class="cls-9" x="374.11" y="341.38" width="7" height="0.99"/><path class="cls-7" d="M464.67,358.3a12.84,12.84,0,1,0,1-11.89l-.09.13-.15,0-.13,0H460a.72.72,0,0,0,0,1.44h4.8l-.14.33a12.6,12.6,0,0,0-.91,3.31l0,.21H450.49a.72.72,0,1,0,0,1.44h13.17v.23a13.26,13.26,0,0,0,.38,3l.08.3h-9.89a.72.72,0,1,0,0,1.43h10.38Zm11.82-16.38A11.39,11.39,0,1,1,466,357.77l0-.07,0-.08a.68.68,0,0,0,0-.19.73.73,0,0,0-.32-.59l-.07,0,0-.07a11.28,11.28,0,0,1-.52-3.41A11.4,11.4,0,0,1,476.49,341.92Z"/><path class="cls-7" d="M488.71,342.28l-.16-.17,1.12-1,1.09,1.14a.72.72,0,0,0,.51.21h0a.74.74,0,0,0,.5-.19.68.68,0,0,0,.22-.5.73.73,0,0,0-.2-.51L488.65,338a.72.72,0,1,0-1,1l1.06,1.1-1.16,1.05-.15-.14a16.49,16.49,0,0,0-9.94-4.09l-.22,0v-1.44H480a.72.72,0,0,0,.72-.72V331.4a.72.72,0,0,0-.72-.72h-7.11a.72.72,0,0,0-.72.72v3.29a.72.72,0,0,0,.72.72h2.84v1.44l-.23,0a16.41,16.41,0,0,0-12,6.28h1.88a15,15,0,1,1-1.27,18.72h-1.71a16.46,16.46,0,1,0,26.28-19.59ZM473.65,334v-1.85h5.68V334Z"/><path class="cls-7" d="M476.43,356.06a3,3,0,0,0,2.95-3,2.7,2.7,0,0,0-.07-.63l0-.17.15-.09,4.7-2.73a.7.7,0,0,0,.34-.43.73.73,0,0,0-1.06-.81l-4.85,2.81-.13-.12a3,3,0,1,0-2,5.13Zm0-4.47a1.52,1.52,0,1,1-1.51,1.51A1.52,1.52,0,0,1,476.43,351.59Z"/><path class="cls-4" d="M557.59,365.66a15.1,15.1,0,0,0-4.17-8.22,16.28,16.28,0,0,0-4.1.57c-.8-1.49-1-4-1-6.52s.22-5,1-6.51a16.75,16.75,0,0,0,4.1.57,15.14,15.14,0,0,0,4.17-8.22,16.09,16.09,0,0,0-6.73-4.76c-2.91,2.06-7.84,8.19-8,19.3.18,11.1,5.86,16.37,8.77,18.42C554.43,369.44,556.57,367,557.59,365.66Z"/><rect class="cls-8" x="551.78" y="341.67" width="37.59" height="20.33" rx="0.59" transform="translate(218.74 922.41) rotate(-90)"/><rect class="cls-10" x="557.04" y="342.68" width="26.44" height="14.42" rx="0.59" transform="translate(220.37 920.15) rotate(-90)"/><circle class="cls-11" cx="570.45" cy="366.26" r="1.37"/><path class="cls-7" d="M570.09,346.94a1.44,1.44,0,0,1,1.48,1.37v1a1.49,1.49,0,0,1-3,0v-1a1.44,1.44,0,0,1,1.49-1.37m0-.83a2.31,2.31,0,0,0-2.4,2.2v1a2.4,2.4,0,0,0,4.79,0v-1a2.3,2.3,0,0,0-2.39-2.2Z"/><path class="cls-7" d="M572,351.62a1.73,1.73,0,0,1,1.79,1.64v1.42a.38.38,0,0,1-.4.36h-6.55a.38.38,0,0,1-.4-.36v-1.42a1.73,1.73,0,0,1,1.79-1.64H572m0-.83H568.2a2.6,2.6,0,0,0-2.7,2.47v1.42a1.25,1.25,0,0,0,1.31,1.19h6.55a1.25,1.25,0,0,0,1.31-1.19v-1.42a2.6,2.6,0,0,0-2.7-2.47Z"/><polygon class="cls-4" points="663.68 341.95 646.81 342.37 646.71 337.42 663.59 337 663.68 341.95"/><line class="cls-4" x1="639.04" y1="349.44" x2="636.86" y2="367"/><line class="cls-4" x1="663.69" y1="342.54" x2="662.89" y2="363.73"/><ellipse class="cls-4" cx="631.64" cy="366.93" rx="5.47" ry="3.67" transform="translate(-69.78 162.93) rotate(-13.94)"/><ellipse class="cls-4" cx="657.48" cy="364.16" rx="5.47" ry="3.67" transform="translate(-68.35 169.07) rotate(-13.94)"/><circle class="cls-8" cx="637.01" cy="340.21" r="9.6"/><line class="cls-4" x1="634.97" y1="336.69" x2="634.97" y2="343.67"/><line class="cls-4" x1="638.76" y1="336.69" x2="638.76" y2="343.67"/><line class="cls-4" x1="733.01" y1="354.36" x2="727.48" y2="344.08"/><path class="cls-4" d="M735.35,364.63a12.24,12.24,0,0,0-7.39-2.79,17.39,17.39,0,0,0-2.67,2.82c-1.37-.47-2.87-2-4.19-3.58s-2.51-3.36-2.7-4.8a17.31,17.31,0,0,0,3.28-2.08,12.21,12.21,0,0,0-1.31-7.79,15.18,15.18,0,0,0-7.42,1c-1,3.06-1.37,10,4.37,17.21,6,7,12.93,7,16.13,6.6A12.18,12.18,0,0,0,735.35,364.63Z"/><path class="cls-4" d="M717.39,342.45a18.61,18.61,0,1,1,21.45,28.47"/><line class="cls-4" x1="732.32" y1="353.65" x2="739.02" y2="349.88"/><line class="cls-4" x1="732.86" y1="340.97" x2="732.86" y2="337.14"/><line class="cls-4" x1="744.57" y1="351.82" x2="748.41" y2="351.82"/><line class="cls-4" x1="740.46" y1="344.55" x2="743.45" y2="342.14"/><line class="cls-4" x1="742.59" y1="360.27" x2="745.74" y2="362.46"/><text class="cls-12" transform="translate(40.96 392.01)"><tspan xml:space="preserve">Home                    Call Center               Messages                   Contacts                                               </tspan><tspan class="cls-13" x="404.62" y="0"> </tspan><tspan class="cls-14" x="406.86" y="0">Time </tspan><tspan class="cls-15" x="431.53" y="0">F</tspan><tspan class="cls-16" x="437.03" y="0">r</tspan><tspan class="cls-14" x="440.2" y="0" xml:space="preserve">ames                  Phones                                                   Call His</tspan><tspan class="cls-17" x="698.55" y="0">t</tspan><tspan class="cls-18" x="701.66" y="0">o</tspan><tspan class="cls-19" x="707.26" y="0">r</tspan><tspan class="cls-18" x="710.71" y="0">y</tspan></text><text class="cls-12" transform="translate(366.71 392.01)">Answering<tspan x="10.92" y="12">Rules</tspan></text><text class="cls-12" transform="translate(625.06 392.01)">Music on<tspan x="9.83" y="12">Hold</tspan></text><path class="cls-2" d="M128.14,453.35c3.17,0,5.22-2.38,5.22-6.05s-2.19-6.46-5.22-6.46-5.23,2.72-5.23,6.46S125,453.35,128.14,453.35Zm0-11c2.17,0,3.68,2,3.68,4.92s-1.37,4.51-3.68,4.51-3.69-1.68-3.69-4.51S126,442.38,128.14,442.38Z"/><path class="cls-2" d="M128.1,454.62c-6.66,0-10.64,2.62-10.64,7v10.14a4.45,4.45,0,0,0,4.44,4.45h.17v2.26a.74.74,0,0,0,1.48,0V465.32a.74.74,0,0,0-1.48,0v9.41h-.17a3,3,0,0,1-3-3V461.61c0-5.12,7-5.52,9.17-5.52s9.18.4,9.18,5.52v10.14a3,3,0,0,1-3,3h-.22v-9.41a.74.74,0,0,0-1.48,0v13.14a.74.74,0,0,0,1.48,0V476.2h.22a4.46,4.46,0,0,0,4.45-4.45V461.61C138.75,457.24,134.77,454.62,128.1,454.62Z"/><path class="cls-2" d="M154.28,461.82c0-4.38-4-7-10.64-7a18,18,0,0,0-5.42.74c.21.43.42.89.61,1.37a17.58,17.58,0,0,1,4.81-.65c2.16,0,9.18.4,9.18,5.53V472a3,3,0,0,1-3,3h-.22v-9.41a.74.74,0,1,0-1.48,0v13.13a.74.74,0,0,0,1.48,0V476.4h.22a4.45,4.45,0,0,0,4.45-4.44Z"/><path class="cls-2" d="M143.74,453.42c3.18,0,5.23-2.38,5.23-6.05s-2.2-6.46-5.23-6.46-5.22,2.72-5.22,6.46S140.57,453.42,143.74,453.42Zm0-11c2.17,0,3.69,2,3.69,4.92s-1.38,4.51-3.69,4.51-3.68-1.69-3.68-4.51S141.57,442.45,143.74,442.45Z"/><path class="cls-4" d="M325,461v13.66H288.56V452.77a1.83,1.83,0,0,1,1.82-1.82h8.2"/><path class="cls-4" d="M285.83,474.62H327.7a0,0,0,0,1,0,0v1.46a4,4,0,0,1-4,4H289.83a4,4,0,0,1-4-4v-1.46A0,0,0,0,1,285.83,474.62Z"/><line class="cls-4" x1="304.95" y1="477.35" x2="309.5" y2="477.35"/><path class="cls-4" d="M300.4,453.68v-9.1a2.73,2.73,0,0,1,2.73-2.73H325a2.73,2.73,0,0,1,2.73,2.73v11.83a2.73,2.73,0,0,1-2.73,2.73h-7.28l-6.64,6.64a.91.91,0,0,1-1.55-.64v-6h-3.64"/><path class="cls-4" d="M307.68,472.8v-2.38c0-2.54-5.25-4-7.28-4s-7.29,1.46-7.29,4v2.38"/><path class="cls-4" d="M300.4,455.5a3.63,3.63,0,0,0-3.64,3.63v.94a3.64,3.64,0,0,0,7.28,0v-.94A3.64,3.64,0,0,0,300.4,455.5Z"/><line class="cls-4" x1="311.77" y1="450.95" x2="312.68" y2="450.95"/><line class="cls-4" x1="313.59" y1="450.95" x2="314.51" y2="450.95"/><line class="cls-4" x1="315.42" y1="450.95" x2="316.33" y2="450.95"/><path class="cls-7" d="M376.21,461.25a2,2,0,0,1,2,2v1.41a2,2,0,0,1-2,2h0a2,2,0,0,1-2-2v-1.41a2,2,0,0,1,2-2h0m0-1.49a3.46,3.46,0,0,0-3.46,3.46v1.41a3.46,3.46,0,1,0,6.91,0v-1.41a3.46,3.46,0,0,0-3.45-3.46Z"/><path class="cls-7" d="M378.69,468a2.37,2.37,0,0,1,2.37,2.36v2.05a.52.52,0,0,1-.52.52h-8.66a.52.52,0,0,1-.52-.52v-2.05a2.37,2.37,0,0,1,2.37-2.36h5m0-1.49h-5a3.86,3.86,0,0,0-3.86,3.85v2.05a2,2,0,0,0,2,2h8.66a2,2,0,0,0,2-2v-2.05a3.86,3.86,0,0,0-3.86-3.85Z"/><path class="cls-7" d="M389.66,467.08a2,2,0,0,1,2,2v1.41a2,2,0,0,1-3.93,0v-1.41a2,2,0,0,1,2-2m0-1.49a3.46,3.46,0,0,0-3.45,3.46v1.41a3.46,3.46,0,0,0,6.91,0v-1.41a3.46,3.46,0,0,0-3.46-3.46Z"/><path class="cls-7" d="M392.14,473.83a2.38,2.38,0,0,1,2.37,2.37v2.05a.52.52,0,0,1-.52.52h-8.66a.52.52,0,0,1-.52-.52V476.2a2.38,2.38,0,0,1,2.37-2.37h5m0-1.49h-5a3.86,3.86,0,0,0-3.86,3.86v2.05a2,2,0,0,0,2,2H394a2,2,0,0,0,2-2V476.2a3.86,3.86,0,0,0-3.86-3.86Z"/><path class="cls-7" d="M403.83,461.25a2,2,0,0,1,2,2v1.41a2,2,0,1,1-3.93,0v-1.41a2,2,0,0,1,2-2m0-1.49a3.46,3.46,0,0,0-3.45,3.46v1.41a3.46,3.46,0,1,0,6.91,0v-1.41a3.46,3.46,0,0,0-3.46-3.46Z"/><path class="cls-7" d="M406.32,468a2.37,2.37,0,0,1,2.37,2.36v2.05a.52.52,0,0,1-.53.52h-8.65a.52.52,0,0,1-.53-.52v-2.05a2.37,2.37,0,0,1,2.37-2.36h5m0-1.49h-5a3.86,3.86,0,0,0-3.86,3.85v2.05a2,2,0,0,0,2,2h8.65a2,2,0,0,0,2-2v-2.05a3.87,3.87,0,0,0-3.86-3.85Z"/><path class="cls-7" d="M402.43,458.3a.74.74,0,0,1-1,.14l-3.2-2.41a.74.74,0,0,1-.15-1,.75.75,0,0,1,1-.15l3.2,2.41A.75.75,0,0,1,402.43,458.3Z"/><path class="cls-7" d="M377.34,458.38a.74.74,0,0,0,1,.15l3.2-2.41a.75.75,0,1,0-.9-1.19l-3.2,2.41A.75.75,0,0,0,377.34,458.38Z"/><path class="cls-7" d="M389.66,463.51a.67.67,0,0,1-.66-.67v-3.59a.67.67,0,0,1,1.33,0v3.59A.67.67,0,0,1,389.66,463.51Z"/><path class="cls-6" d="M392.93,455.19v0a1.08,1.08,0,0,0,.09-.87L392,451l0-.06a1.17,1.17,0,0,0-.31-.42,1.19,1.19,0,0,0-.83-.31h0l-1.24.1h0l-.08-.11a2,2,0,0,1-.22-.48,7.51,7.51,0,0,1-.27-1,10.82,10.82,0,0,1-.15-1.63,9.38,9.38,0,0,1,0-1.62,6.19,6.19,0,0,1,.19-1,2.59,2.59,0,0,1,.25-.64h0l1.06-.07a1.36,1.36,0,0,0,.68-.26,1.09,1.09,0,0,0,.41-.63l.92-3.49v0a1.61,1.61,0,0,0,0-.49.89.89,0,0,0-.27-.48.94.94,0,0,0-.71-.23l-2.91.2a1.63,1.63,0,0,0-.55.13,1.7,1.7,0,0,0-.47.29l0,0-.21.22a4.5,4.5,0,0,0-.52.67,8.7,8.7,0,0,0-.59,1.12,10.47,10.47,0,0,0-.56,1.62,14.31,14.31,0,0,0-.39,2.18,17.85,17.85,0,0,0-.07,2.79,16.82,16.82,0,0,0,.43,3.41,13.11,13.11,0,0,0,.81,2.38,7.61,7.61,0,0,0,.89,1.51,7,7,0,0,0,.66.73l.1.09.07.06.06,0,0,0a1.56,1.56,0,0,0,.49.22,1.51,1.51,0,0,0,.55.05l2.91-.19A1,1,0,0,0,392.93,455.19Zm-.82-.11-2.91.2h0a1.08,1.08,0,0,1-.35,0,1.43,1.43,0,0,1-.33-.15l-.07-.05-.14-.12a6,6,0,0,1-.6-.67,6.69,6.69,0,0,1-.82-1.39,13,13,0,0,1-.77-2.29,16.32,16.32,0,0,1-.42-3.3,18.1,18.1,0,0,1,.07-2.71,14.68,14.68,0,0,1,.37-2.09,10,10,0,0,1,.53-1.53,8,8,0,0,1,.55-1,3.4,3.4,0,0,1,.44-.58l.21-.22a1.13,1.13,0,0,1,.32-.19.94.94,0,0,1,.36-.08l2.92-.21a.37.37,0,0,1,.31.1.25.25,0,0,1,.1.17.88.88,0,0,1,0,.28l-.92,3.5a.48.48,0,0,1-.2.29.73.73,0,0,1-.39.15l-1.07.08a.43.43,0,0,0-.23.08.59.59,0,0,0-.17.13l0,0a3.17,3.17,0,0,0-.33.82,7,7,0,0,0-.2,1.12,9.21,9.21,0,0,0,0,1.7,10.71,10.71,0,0,0,.16,1.71,7.15,7.15,0,0,0,.29,1.09,2.69,2.69,0,0,0,.29.61l.12.15a.08.08,0,0,0,0,0,.4.4,0,0,0,.16.1.42.42,0,0,0,.24,0l1.25-.09a.64.64,0,0,1,.46.17.61.61,0,0,1,.17.23.14.14,0,0,0,0,.06l1,3.27a.54.54,0,0,1,0,.42A.47.47,0,0,1,392.11,455.08Z"/><path class="cls-20" d="M392.8,447.88l.68.23a2.89,2.89,0,0,0,.36-1.53,2.74,2.74,0,0,0-.7-1.72l-.63.38a2.09,2.09,0,0,1,.29,2.64Z"/><path class="cls-20" d="M396.94,446.27a6.08,6.08,0,0,1-.52,2.7l.66.23a6.66,6.66,0,0,0,.57-3,6.42,6.42,0,0,0-1.12-3.35l-.61.36A5.7,5.7,0,0,1,396.94,446.27Z"/><path class="cls-20" d="M395.09,446.56a4.11,4.11,0,0,1-.43,2l.67.23a4.75,4.75,0,0,0,.47-2.28,4.62,4.62,0,0,0-.92-2.58l-.62.37A4,4,0,0,1,395.09,446.56Z"/><path class="cls-4" d="M730.11,455.16c18.76,3.55,16.21,19,16.21,19"/><path class="cls-4" d="M731.05,455.16c-18.77,3.55-16.21,19-16.21,19"/><line class="cls-4" x1="730.21" y1="449.28" x2="730.21" y2="473.9"/><rect class="cls-4" x="726.62" y="442.32" width="6.9" height="6.9"/><rect class="cls-4" x="710.88" y="473.47" width="6.9" height="6.9"/><rect class="cls-4" x="742.71" y="473.9" width="6.9" height="6.9"/><rect class="cls-4" x="726.62" y="473.97" width="6.9" height="6.9"/><path class="cls-2" d="M234.71,480.63H210.59a2.32,2.32,0,0,1-2.32-2.31V449.77a2.32,2.32,0,0,1,2.32-2.32h3.65a.68.68,0,0,1,0,1.35h-3.65a1,1,0,0,0-1,1v28.55a1,1,0,0,0,1,1h24.12a1,1,0,0,0,1-1V449.77a1,1,0,0,0-1-1h-4.06a.68.68,0,1,1,0-1.35h4.06a2.32,2.32,0,0,1,2.31,2.32v28.55A2.32,2.32,0,0,1,234.71,480.63Z"/><path class="cls-2" d="M219.87,456.3v5.81h-5.82V456.3h5.82m0-1.36h-5.82a1.35,1.35,0,0,0-1.35,1.36v5.81a1.35,1.35,0,0,0,1.35,1.36h5.82a1.35,1.35,0,0,0,1.35-1.36V456.3a1.35,1.35,0,0,0-1.35-1.36Z"/><path class="cls-2" d="M229.78,458.75h-6.23a.68.68,0,1,1,0-1.35h6.23a.68.68,0,1,1,0,1.35Z"/><path class="cls-2" d="M228.14,461.82h-4.59a.68.68,0,0,1,0-1.36h4.59a.68.68,0,0,1,0,1.36Z"/><path class="cls-2" d="M229.78,469h-6.23a.68.68,0,0,1,0-1.36h6.23a.68.68,0,1,1,0,1.36Z"/><path class="cls-2" d="M228.14,472.06h-4.59a.68.68,0,0,1,0-1.36h4.59a.68.68,0,0,1,0,1.36Z"/><path class="cls-2" d="M219.87,467.62v5.82h-5.82v-5.82h5.82m0-1.35h-5.82a1.35,1.35,0,0,0-1.35,1.35v5.82a1.35,1.35,0,0,0,1.35,1.36h5.82a1.35,1.35,0,0,0,1.35-1.36v-5.82a1.35,1.35,0,0,0-1.35-1.35Z"/><path class="cls-2" d="M222.44,439.92a4.2,4.2,0,0,1,4.19,4.18v2.06h4v4.61H214.24v-4.61h4V444.1a4.19,4.19,0,0,1,4.18-4.18m0-1.35a5.54,5.54,0,0,0-5.54,5.53v.7h-2.66a1.36,1.36,0,0,0-1.36,1.36v4.61a1.36,1.36,0,0,0,1.36,1.36h16.41a1.36,1.36,0,0,0,1.35-1.36v-4.61a1.36,1.36,0,0,0-1.35-1.36H228v-.7a5.54,5.54,0,0,0-5.54-5.53Z"/><path class="cls-2" d="M222.48,443.37a1.23,1.23,0,1,1-1.23,1.23,1.23,1.23,0,0,1,1.23-1.23m0-1.36a2.59,2.59,0,1,0,2.59,2.59,2.59,2.59,0,0,0-2.59-2.59Z"/><path class="cls-7" d="M216.55,472.23a.07.07,0,0,0,.09,0l2.61-2.61s0,0,0,0,0,0,0,0l-.37-.36s-.06,0-.08,0l-2.18,2.17-1.48-1.47a0,0,0,0,0-.08,0l-.39.38a.07.07,0,0,0,0,.09Z"/><path class="cls-7" d="M216.52,460.54a.06.06,0,0,0,.08,0l2.61-2.61s0,0,0,0,0,0,0,0l-.36-.36a.08.08,0,0,0-.09,0l-2.18,2.17-1.48-1.47a0,0,0,0,0-.08,0l-.39.38a.06.06,0,0,0,0,.09Z"/><path class="cls-7" d="M567,461.23a.81.81,0,0,1-.81.81H558.6a.81.81,0,0,1,0-1.61h7.56A.8.8,0,0,1,567,461.23Z"/><path class="cls-7" d="M562.65,446.71v29a.81.81,0,0,1-1.61,0v-29a.81.81,0,0,1,1.61,0Z"/><path class="cls-7" d="M567,475.75a.8.8,0,0,1-.81.8h-4.32a.8.8,0,0,1,0-1.6h4.32A.8.8,0,0,1,567,475.75Z"/><path class="cls-7" d="M567,446.71a.8.8,0,0,1-.81.8h-4.32a.8.8,0,1,1,0-1.6h4.32A.8.8,0,0,1,567,446.71Z"/><path class="cls-6" d="M551.32,477l0,0a1.87,1.87,0,0,0,.19-1.52l-1.64-5.94a.61.61,0,0,0,0-.12,2,2,0,0,0-.52-.75,2.13,2.13,0,0,0-1.45-.62h0l-2.2.06h0l-.15-.21a4.26,4.26,0,0,1-.37-.86,11.82,11.82,0,0,1-.42-1.78,18.38,18.38,0,0,1-.21-2.87,17.3,17.3,0,0,1,.11-2.85,11.25,11.25,0,0,1,.37-1.79,4.61,4.61,0,0,1,.46-1.1l0,0h0l1.87,0a2.23,2.23,0,0,0,1.21-.39,1.85,1.85,0,0,0,.77-1.05l1.76-6.06a.06.06,0,0,1,0,0,2.49,2.49,0,0,0,0-.86,1.55,1.55,0,0,0-.46-.86,1.67,1.67,0,0,0-1.24-.47l-5.15.09a2.46,2.46,0,0,0-1,.17,2.89,2.89,0,0,0-.85.46l0,0s-.16.16-.38.36A7,7,0,0,0,541,449a14.21,14.21,0,0,0-1.09,1.91,17.86,17.86,0,0,0-1.05,2.79,26.47,26.47,0,0,0-.78,3.79,36.82,36.82,0,0,0,.39,10.94,24,24,0,0,0,1.33,4.26,13.49,13.49,0,0,0,1.5,2.72,13.24,13.24,0,0,0,1.14,1.35l.18.17.12.1.09.07.06.05a3.23,3.23,0,0,0,.87.44,2.5,2.5,0,0,0,1,.13l5.14-.07A1.75,1.75,0,0,0,551.32,477Zm-1.44-.25-5.15.07h0a1.68,1.68,0,0,1-.6-.09,2.16,2.16,0,0,1-.59-.29l-.12-.1a1.56,1.56,0,0,1-.23-.21,10.9,10.9,0,0,1-1-1.24,12.51,12.51,0,0,1-1.38-2.52,23.51,23.51,0,0,1-1.27-4.09,28.45,28.45,0,0,1-.6-5.84,30.42,30.42,0,0,1,.22-4.75,27.23,27.23,0,0,1,.75-3.64,17.51,17.51,0,0,1,1-2.65,14.73,14.73,0,0,1,1-1.78,6.21,6.21,0,0,1,.8-1l.39-.37a2.19,2.19,0,0,1,.57-.3,1.55,1.55,0,0,1,.63-.11l5.16-.09a.72.72,0,0,1,.56.2.56.56,0,0,1,.17.31,1.68,1.68,0,0,1,0,.5l-1.76,6.05a.88.88,0,0,1-.37.5,1.19,1.19,0,0,1-.69.23l-1.9,0a.86.86,0,0,0-.41.12,1.14,1.14,0,0,0-.3.21l0,.07a5.55,5.55,0,0,0-.62,1.42,12.3,12.3,0,0,0-.41,1.94,27.58,27.58,0,0,0,.11,6,12.55,12.55,0,0,0,.46,1.93,4.59,4.59,0,0,0,.49,1.09l.2.29.06.07a1.21,1.21,0,0,0,.29.19,1,1,0,0,0,.42.1l2.21-.06a1.22,1.22,0,0,1,.81.35.89.89,0,0,1,.28.41,1.17,1.17,0,0,0,.05.11l1.61,5.84a.9.9,0,0,1-.06.74A.8.8,0,0,1,549.88,476.7Z"/><path class="cls-7" d="M550.18,463.86l1.06.42a4.47,4.47,0,0,0-.41-5.13l-1,.54a3.28,3.28,0,0,1,.94,2.26A3.16,3.16,0,0,1,550.18,463.86Z"/><path class="cls-7" d="M554.9,461.68a9.61,9.61,0,0,1-.92,4.2l1,.41a10.06,10.06,0,0,0,1-4.64,10.28,10.28,0,0,0-1.64-5.35l-1,.52A9.14,9.14,0,0,1,554.9,461.68Z"/><path class="cls-7" d="M552.66,462a7,7,0,0,1-.84,3.47l1.18.48a8.32,8.32,0,0,0-.59-8.59l-1.12.59A7,7,0,0,1,552.66,462Z"/><path class="cls-7" d="M574.71,441.55a1.65,1.65,0,0,1,1.64,1.65v1.18a1.65,1.65,0,1,1-3.29,0V443.2a1.65,1.65,0,0,1,1.65-1.65m0-1.25a2.9,2.9,0,0,0-2.9,2.9v1.18a2.9,2.9,0,1,0,5.79,0V443.2a2.9,2.9,0,0,0-2.89-2.9Z"/><path class="cls-7" d="M576.79,447.21a2,2,0,0,1,2,2v1.72a.44.44,0,0,1-.44.43h-7.25a.44.44,0,0,1-.44-.43v-1.72a2,2,0,0,1,2-2h4.17m0-1.25h-4.17a3.23,3.23,0,0,0-3.23,3.23v1.72a1.69,1.69,0,0,0,1.69,1.68h7.25a1.69,1.69,0,0,0,1.69-1.68v-1.72a3.23,3.23,0,0,0-3.23-3.23Z"/><path class="cls-7" d="M574.71,455.42a1.65,1.65,0,0,1,1.64,1.65v1.18a1.65,1.65,0,1,1-3.29,0v-1.18a1.65,1.65,0,0,1,1.65-1.65m0-1.25a2.9,2.9,0,0,0-2.9,2.9v1.18a2.9,2.9,0,1,0,5.79,0v-1.18a2.9,2.9,0,0,0-2.89-2.9Z"/><path class="cls-7" d="M576.79,461.08a2,2,0,0,1,2,2v1.72a.44.44,0,0,1-.44.43h-7.25a.44.44,0,0,1-.44-.43v-1.72a2,2,0,0,1,2-2h4.17m0-1.25h-4.17a3.23,3.23,0,0,0-3.23,3.23v1.72a1.69,1.69,0,0,0,1.69,1.68h7.25a1.69,1.69,0,0,0,1.69-1.68v-1.72a3.23,3.23,0,0,0-3.23-3.23Z"/><path class="cls-7" d="M574.52,469.29a1.65,1.65,0,0,1,1.64,1.65v1.18a1.65,1.65,0,1,1-3.29,0v-1.18a1.65,1.65,0,0,1,1.65-1.65m0-1.25a2.9,2.9,0,0,0-2.9,2.9v1.18a2.9,2.9,0,1,0,5.79,0v-1.18a2.9,2.9,0,0,0-2.89-2.9Z"/><path class="cls-7" d="M576.6,475a2,2,0,0,1,2,2v1.72a.44.44,0,0,1-.44.43h-7.25a.44.44,0,0,1-.44-.43v-1.72a2,2,0,0,1,2-2h4.16m0-1.25h-4.16a3.24,3.24,0,0,0-3.24,3.23v1.72a1.69,1.69,0,0,0,1.69,1.68h7.25a1.69,1.69,0,0,0,1.69-1.68v-1.72a3.23,3.23,0,0,0-3.23-3.23Z"/><path class="cls-7" d="M669.92,454.1,665.57,449a3.84,3.84,0,0,0-5.4-.45l-2.26,1.76-.13,0c-1.51-.48-6.58-2-9.16-1.66a9.14,9.14,0,0,0-1.33.33l-.08,0-.09,0c-3.81-1.2-5.62-.48-7.07.11l-.06,0a5.63,5.63,0,0,1-2.23.54h-1c-2.44,0-3.09,0-3.61-.4-2.07-1.52-3.77-1.45-5.34.2l-3.54,4.83c-1.66,1.81-.46,4.37.14,5.38l1.87,3.21a3.59,3.59,0,0,0,1.12.72l.41.18L626,465.45a2.29,2.29,0,0,0,0,3.23l.88.9a2.24,2.24,0,0,0,.85.54l.22.08v.24a2.29,2.29,0,0,0,.57,2.18l.88.9a2.32,2.32,0,0,0,1.62.68,2.48,2.48,0,0,0,.86-.16l.24-.1.13.22a2.26,2.26,0,0,0,.52.82l.88.9a2.34,2.34,0,0,0,2.63.45l.24-.12.15.22a2.39,2.39,0,0,0,.5.76l.88.9a2.33,2.33,0,0,0,3.23,0l.77-.75,1.4,1.17a3,3,0,0,0,1.25.72l.08,0a3.07,3.07,0,0,0,3.57-.61,2.84,2.84,0,0,0,.6-.95l.16-.42.66.62a3,3,0,0,0,1.23.69l.08,0a3,3,0,0,0,3.57-.61,2.89,2.89,0,0,0,.73-1.38l.07-.29.29.06a3,3,0,0,0,4.15-2.87c0-.12,0-.24,0-.38l-.06-.34.33,0h.07a2.69,2.69,0,0,0,.48,0,3,3,0,0,0,2.09-1,3,3,0,0,0-.14-4.24l-1.06-1,.49-.16a3.64,3.64,0,0,0,1.33-.74l6-6a4.3,4.3,0,0,0,1.41-2.7A3.85,3.85,0,0,0,669.92,454.1Zm-41.45,14.95a1.06,1.06,0,0,1-.77-.32l-.88-.89a1.09,1.09,0,0,1,0-1.53l4.68-4.61a1.07,1.07,0,0,1,.76-.31,1.11,1.11,0,0,1,.77.33l.88.89a1.06,1.06,0,0,1,.2,1.22l0,.08-5.14,5A1.09,1.09,0,0,1,628.47,469.05Zm3.27,3.63a1,1,0,0,1-.73.31,1.08,1.08,0,0,1-.8-.32l-.88-.89a1.1,1.1,0,0,1,0-1.53l.37-.35a4.48,4.48,0,0,0,.36-.29l4.68-4.62a2,2,0,0,0,.27-.31l.49-.49a1.09,1.09,0,0,1,1.52,0l.88.89a1.11,1.11,0,0,1,.31.77,1.07,1.07,0,0,1-.32.76ZM636,475a1.06,1.06,0,0,1-.76.31,1.09,1.09,0,0,1-.77-.32l-.88-.89a1.1,1.1,0,0,1,0-1.53l4.26-4.19a1.12,1.12,0,0,1,1.53,0l.88.89a1.09,1.09,0,0,1,0,1.53Zm6.48.16-2.09,2.05a1,1,0,0,1-.74.31,1,1,0,0,1-.78-.32l-.88-.89a1.11,1.11,0,0,1-.31-.77,1,1,0,0,1,.32-.76l2.09-2.05a1.07,1.07,0,0,1,1.52,0l.88.89a1.09,1.09,0,0,1,0,1.53Zm19.45-5.68a2,2,0,0,1-.55,1.47,2,2,0,0,1-1.43.65,2.08,2.08,0,0,1-.43,0l-.07,0a1.89,1.89,0,0,1-.32-.24c-3.18-3-5.14-4.89-5.83-5.59l-.07-.06-.12,0a.85.85,0,0,0-.43-.13.73.73,0,0,0-.74.71l.3.63,5.37,5a2.07,2.07,0,0,1,.64,1.43,2.05,2.05,0,0,1-2.41,2.09l-.07,0a2.91,2.91,0,0,1-.32-.24l-.24-.26a3.1,3.1,0,0,0-.74-1.1l-4.89-4.24-.12-.05a.67.67,0,0,0-.31-.07.73.73,0,0,0-.74.71.71.71,0,0,0,.29.56l.19.14v0l4.88,4.34,0,.08a1.73,1.73,0,0,1,0,.37,2,2,0,0,1-2.41,2.08l-.07,0a2.41,2.41,0,0,1-.32-.24l-2.15-2c-1.15-1.26-1.57-1.7-1.72-1.84a.75.75,0,0,0-1.34.43.69.69,0,0,0,.44.64l.07.05,1.12,1,0,.07a2,2,0,0,1-2,2.56,2.31,2.31,0,0,1-.37,0l-.1,0-.3-.23-1.86-1.58.48-.47a2.28,2.28,0,0,0,0-3.23l-.88-.9a2.43,2.43,0,0,0-.73-.5l-.24-.1.06-.26a2.31,2.31,0,0,0-.43-2.59l-.88-.9a2.26,2.26,0,0,0-.8-.52l-.23-.09,0-.26a2.44,2.44,0,0,0,.18-.84,2.26,2.26,0,0,0-.66-1.62l-.88-.9a2.31,2.31,0,0,0-1.61-.68,2.18,2.18,0,0,0-.63.09l-.22.06-.13-.21a2.4,2.4,0,0,0-.52-.85l-.88-.89a2.24,2.24,0,0,0-1.62-.68,2.31,2.31,0,0,0-1.62.65l-1.51,1.49h-.29a2.33,2.33,0,0,1-1.53-.55l-.06-.07-1.9-3.24c-.65-1.35-1-2.29-.07-3.29l3.54-4.82c.92-1,1.73-1.25,3.41,0,.91.66,2.12.67,4.54.68h1a7.39,7.39,0,0,0,2.86-.67,6.66,6.66,0,0,1,3.54-.62l.92.09-.79.47a10.2,10.2,0,0,0-3.9,3.69,3.1,3.1,0,0,0-.06,3c1.21,2.23,3.7,1.21,5.71.38,1.73-.71,3-1.17,3.58-.58,2.84,2.89,9.28,9.33,9.88,9.63l.06,0,1.73,1.6A2,2,0,0,1,661.92,469.52Zm7.36-12.66a2.78,2.78,0,0,1-.92,1.78l-6,6.05a2.4,2.4,0,0,1-1.5.54,2.36,2.36,0,0,1-1.19-.32l-1.37-1.29-7.62-7.82a2.35,2.35,0,0,0-1.77-.71,9.77,9.77,0,0,0-3.41,1c-2.58,1.05-3.42,1.12-3.88.27a1.71,1.71,0,0,1,.08-1.66c1.1-2.17,5.11-4.36,7.14-4.64,2.2-.29,7.27,1.18,9,1.77l.4.14,2.87-2.3a2.36,2.36,0,0,1,1.72-.54,2.32,2.32,0,0,1,1.61.83L668.8,455A2.39,2.39,0,0,1,669.28,456.86Z"/><path class="cls-2" d="M62.41,472.2l-.09.18H56.9L57,472a28.38,28.38,0,0,0,.77-5.35L56,464.41H49.25v-6.86h2.42l-.26-1.11H49.25l-.06-8.08-.51,0a16.69,16.69,0,0,0-14.36,8.29.53.53,0,0,0-.1.17,16.59,16.59,0,0,0,0,16.3.82.82,0,0,0,.09.17,16.72,16.72,0,0,0,14.4,8.32h.22a16.62,16.62,0,0,0,16.3-14.73l-1.27,1A15.41,15.41,0,0,1,62.41,472.2ZM36.1,455.91a15.7,15.7,0,0,1,7.57-5.62l1.19-.41-.83.95a15.93,15.93,0,0,0-2.89,5.38l-.07.23H35.72Zm-2.9,8.15A15.39,15.39,0,0,1,35,457.73l.09-.18h5.68l-.1.42a29.07,29.07,0,0,0-.8,6.11v.33H33.18ZM35,472.2a15.31,15.31,0,0,1-1.77-6.32l0-.36h6.66v.33a29,29,0,0,0,.8,6.11l.1.42H35.06Zm8.7,7.45A15.76,15.76,0,0,1,36.1,474l-.38-.54h5.35l.07.23A15.74,15.74,0,0,0,44,479.1l.83.95Zm4.46.79-.43-.12c-2.11-.62-4-2.88-5.26-6.37l-.17-.46h5.86Zm0-8.06h-6.2l-.07-.25a26.86,26.86,0,0,1-.9-6.26v-.35h7.18Zm0-8H41v-.34a26.94,26.94,0,0,1,.9-6.27l.07-.25h6.2Zm0-8H42.27l.17-.45c1.28-3.49,3.15-5.76,5.26-6.37l.43-.13Zm1.12,9.08H56.7v.35a26.86,26.86,0,0,1-.91,6.26l-.06.25H49.25Zm.4,14.87-.4.09v-7h6.12l-.16.46C53.88,477.56,51.85,479.91,49.65,480.39ZM61.28,474a15.77,15.77,0,0,1-7.19,5.48l-1.21.45.84-1a16.22,16.22,0,0,0,2.78-5.26l.08-.23h5.08Z"/><path class="cls-2" d="M61.77,465.53c.33-.48,8-11.86,8-16.33a8.47,8.47,0,0,0-16.93,0c0,4.48,7.68,15.85,8,16.33A.57.57,0,0,0,61.77,465.53Zm-.46-23.68a7.36,7.36,0,0,1,7.36,7.35c0,2.77-3.66,9.35-7.07,14.59l-.29.43-.28-.43C57.61,458.55,54,452,54,449.2A7.36,7.36,0,0,1,61.31,441.85Z"/><path class="cls-2" d="M65.11,449.46a3.85,3.85,0,1,0-3.85,3.85A3.85,3.85,0,0,0,65.11,449.46Zm-6.59,0a2.74,2.74,0,1,1,2.74,2.74A2.74,2.74,0,0,1,58.52,449.46Z"/><path class="cls-2" d="M485.63,446.67H470.2a.7.7,0,0,0,0,1.39h15.43a.7.7,0,0,0,0-1.39Z"/><path class="cls-2" d="M485.63,450.73H470.2a.7.7,0,0,0,0,1.39h15.43a.7.7,0,0,0,0-1.39Z"/><rect class="cls-2" x="462.68" y="458.2" width="4.64" height="1.39"/><path class="cls-2" d="M488.57,458.27v3.33a.69.69,0,0,0,.69.7h3.89a.69.69,0,0,0,.69-.7v-3.33a.69.69,0,0,0-.69-.69h-3.89A.69.69,0,0,0,488.57,458.27Zm1.39.7h2.49v1.94H490Z"/><path class="cls-2" d="M496.91,454.79h-5.74v-12.6a.7.7,0,0,0-.7-.7H465.08a.69.69,0,0,0-.69.7v12.6h-5.47a.69.69,0,0,0-.69.7v16.2a.69.69,0,0,0,.69.69h5.47v6.71a.69.69,0,0,0,.69.69H485a.75.75,0,0,0,.26,0,.91.91,0,0,0,.23-.15h0l5.47-5.52s0-.07.07-.1a.57.57,0,0,0,.08-.13.45.45,0,0,0,0-.2s0,0,0-.06v-1.19h5.74a.7.7,0,0,0,.7-.69v-16.2A.7.7,0,0,0,496.91,454.79Zm-31.13-11.91h24v11.91h-24Zm20,34.48.07-3.15,3,0Zm4-4.5-4.64-.05h0a.7.7,0,0,0-.69.68l-.11,4.9H465.78V466.24h24Zm6.44-1.87h-5v-5.45a.7.7,0,0,0-.7-.69H465.08a.69.69,0,0,0-.69.69V471h-4.77V456.18h36.59Z"/><text class="cls-12" transform="translate(31.96 503.83)"><tspan xml:space="preserve">Domains                   Users                       In</tspan><tspan class="cls-21" x="174.68" y="0">v</tspan><tspan x="179.42" y="0">en</tspan><tspan class="cls-17" x="190.08" y="0">t</tspan><tspan x="193.2" y="0">o</tspan><tspan class="cls-22" x="198.8" y="0">r</tspan><tspan x="202.25" y="0" xml:space="preserve">y                Con</tspan><tspan class="cls-23" x="263.5" y="0">f</tspan><tspan x="266.69" y="0">e</tspan><tspan class="cls-24" x="271.86" y="0">r</tspan><tspan x="275.13" y="0" xml:space="preserve">ences            Call Queues                     </tspan><tspan class="cls-25" x="433.32" y="0">F</tspan><tspan class="cls-14" x="438.78" y="0" xml:space="preserve">ax                                                           </tspan><tspan class="cls-26" x="592.47" y="0">P</tspan><tspan class="cls-18" x="598.57" y="0">a</tspan><tspan class="cls-27" x="603.93" y="0">r</tspan><tspan x="607.54" y="0" xml:space="preserve">tners                   Sip</tspan><tspan class="cls-13" x="689.75" y="0"> </tspan><tspan class="cls-28" x="691.98" y="0">T</tspan><tspan class="cls-18" x="697.59" y="0" xml:space="preserve">runks                              </tspan></text><text class="cls-12" transform="translate(545.81 503.83)"><tspan class="cls-26">A</tspan><tspan x="6.19" y="0">u</tspan><tspan class="cls-17" x="11.68" y="0">t</tspan><tspan x="14.8" y="0">o</tspan><tspan class="cls-29" x="-13.76" y="12">A</tspan><tspan x="-7.6" y="12">ttendants</tspan></text><path class="cls-30" d="M79.31,120.48,58.81,101a.76.76,0,0,0-1.06,0L37.89,120.49A.76.76,0,0,0,39,121.58l19.33-19,20,19a.73.73,0,0,0,.53.21.78.78,0,0,0,.55-.23A.76.76,0,0,0,79.31,120.48Z"/><path class="cls-30" d="M72.48,137.79H63.82V125.44a.76.76,0,0,0-.76-.76H53.84a.76.76,0,0,0-.76.76v12.35H44.41V119.41H42.89v19.14a.76.76,0,0,0,.76.76H53.84a.76.76,0,0,0,.76-.76V126.21h7.69v12.34a.76.76,0,0,0,.77.76H73.24a.76.76,0,0,0,.76-.76V119.41H72.48Z"/><path class="cls-30" d="M46.18,102.35h3.31V106L51,104.5v-2.89a.75.75,0,0,0-.74-.75H45.43a.75.75,0,0,0-.74.75v9.23l1.49-1.49Z"/><path class="cls-31" d="M127.83,118.49h.84a0,0,0,0,1,0,0v11.87a0,0,0,0,1,0,0h-.84a5.94,5.94,0,0,1-5.94-5.94v0a5.94,5.94,0,0,1,5.94-5.94Z"/><path class="cls-31" d="M130.4,132.08h0a1.73,1.73,0,0,1-1.73-1.74V118.5a1.73,1.73,0,0,1,1.73-1.74h0a1.74,1.74,0,0,1,1.74,1.74v11.84A1.74,1.74,0,0,1,130.4,132.08Z"/><path class="cls-31" d="M161,118.49h.84a0,0,0,0,1,0,0v11.87a0,0,0,0,1,0,0H161a5.94,5.94,0,0,1-5.94-5.94v0A5.94,5.94,0,0,1,161,118.49Z" transform="translate(316.95 248.84) rotate(-180)"/><path class="cls-31" d="M153.35,132.08h0a1.74,1.74,0,0,0,1.74-1.74V118.5a1.74,1.74,0,0,0-1.74-1.74h0a1.73,1.73,0,0,0-1.73,1.74v11.84A1.73,1.73,0,0,0,153.35,132.08Z"/><path class="cls-31" d="M158.27,116.57a16.17,16.17,0,0,0-32.33,0"/><path class="cls-31" d="M158.27,132.16h0a6.81,6.81,0,0,1-6.81,6.81h-4.33"/><path class="cls-31" d="M145.14,137h-3a2,2,0,0,0-2,2h0a2,2,0,0,0,2,2h3a2,2,0,0,0,2-2h0A2,2,0,0,0,145.14,137Z"/><path class="cls-32" d="M221.29,122.22h-3.1L211.6,131c-.94,1.25-2.73.49-2.73-1.16v-7.63h-1.56a3.35,3.35,0,0,1-3.1-3.55V104.46a3.35,3.35,0,0,1,3.1-3.56h24.85a3.35,3.35,0,0,1,3.11,3.56v10.65"/><path class="cls-33" d="M249.73,139.74h-23.1a4.62,4.62,0,0,1-4.62-4.62V120.44a4.62,4.62,0,0,1,4.62-4.62h23.1a4.62,4.62,0,0,1,4.62,4.62v14.68A4.62,4.62,0,0,1,249.73,139.74ZM226.63,117a3.41,3.41,0,0,0-3.41,3.41v14.68a3.42,3.42,0,0,0,3.41,3.42h23.1a3.42,3.42,0,0,0,3.41-3.42V120.44a3.41,3.41,0,0,0-3.41-3.41Z"/><path class="cls-34" d="M238.28,131.26a.62.62,0,0,1-.41-.14L223,118.46a.54.54,0,0,1,0-.79.64.64,0,0,1,.85,0L238.28,130l14.29-12a.63.63,0,0,1,.85,0,.53.53,0,0,1,0,.79l-14.69,12.36A.61.61,0,0,1,238.28,131.26Z"/><path class="cls-34" d="M224.15,139a.47.47,0,0,1-.38-.19.65.65,0,0,1,0-.83l10-10.46a.47.47,0,0,1,.73,0,.65.65,0,0,1,0,.83l-10,10.46A.46.46,0,0,1,224.15,139Z"/><path class="cls-34" d="M252.3,139a.49.49,0,0,1-.35-.15l-10-10.46a.65.65,0,0,1,0-.83.46.46,0,0,1,.72,0l10,10.46a.65.65,0,0,1,0,.83A.49.49,0,0,1,252.3,139Z"/><circle class="cls-35" cx="212.43" cy="110.68" r="1.14"/><circle class="cls-35" cx="217.43" cy="110.64" r="1.14"/><circle class="cls-35" cx="221.99" cy="110.64" r="1.14"/><circle class="cls-35" cx="226.56" cy="110.64" r="1.14"/><path class="cls-36" d="M300.55,120.25a2.12,2.12,0,0,1,2.12,2.12v1.51a2.12,2.12,0,0,1-2.12,2.12h0a2.13,2.13,0,0,1-2.12-2.12v-1.51a2.13,2.13,0,0,1,2.12-2.12h0m0-1.61a3.73,3.73,0,0,0-3.72,3.73v1.51a3.72,3.72,0,1,0,7.44,0v-1.51a3.73,3.73,0,0,0-3.72-3.73Z"/><path class="cls-36" d="M303.23,127.52a2.56,2.56,0,0,1,2.55,2.55v2.2a.57.57,0,0,1-.57.56h-9.32a.56.56,0,0,1-.56-.56v-2.2a2.56,2.56,0,0,1,2.55-2.55h5.35m0-1.61h-5.35a4.17,4.17,0,0,0-4.16,4.16v2.2a2.18,2.18,0,0,0,2.17,2.17h9.32a2.17,2.17,0,0,0,2.17-2.17v-2.2a4.16,4.16,0,0,0-4.15-4.16Z"/><path class="cls-36" d="M315,126.52a2.13,2.13,0,0,1,2.12,2.12v1.52a2.12,2.12,0,1,1-4.24,0v-1.52a2.13,2.13,0,0,1,2.12-2.12m0-1.6a3.73,3.73,0,0,0-3.72,3.72v1.52a3.72,3.72,0,1,0,7.44,0v-1.52a3.73,3.73,0,0,0-3.72-3.72Z"/><path class="cls-36" d="M317.71,133.79a2.56,2.56,0,0,1,2.55,2.55v2.2a.57.57,0,0,1-.56.57h-9.32a.57.57,0,0,1-.56-.57v-2.2a2.55,2.55,0,0,1,2.55-2.55h5.34m0-1.6h-5.34a4.15,4.15,0,0,0-4.16,4.15v2.2a2.17,2.17,0,0,0,2.17,2.17h9.32a2.17,2.17,0,0,0,2.17-2.17v-2.2a4.16,4.16,0,0,0-4.16-4.15Z"/><path class="cls-36" d="M329.53,120.25a2.13,2.13,0,0,1,2.12,2.12v1.51a2.12,2.12,0,0,1-4.24,0v-1.51a2.12,2.12,0,0,1,2.12-2.12m0-1.61a3.73,3.73,0,0,0-3.72,3.73v1.51a3.72,3.72,0,1,0,7.44,0v-1.51a3.73,3.73,0,0,0-3.72-3.73Z"/><path class="cls-36" d="M332.2,127.52a2.56,2.56,0,0,1,2.55,2.55v2.2a.56.56,0,0,1-.56.56h-9.32a.56.56,0,0,1-.56-.56v-2.2a2.55,2.55,0,0,1,2.55-2.55h5.34m0-1.61h-5.34a4.17,4.17,0,0,0-4.16,4.16v2.2a2.17,2.17,0,0,0,2.17,2.17h9.32a2.17,2.17,0,0,0,2.17-2.17v-2.2a4.17,4.17,0,0,0-4.16-4.16Z"/><path class="cls-36" d="M327.46,116.92a.55.55,0,0,1-.86.14L324,114.68a.84.84,0,0,1-.12-1,.55.55,0,0,1,.86-.14l2.63,2.38A.84.84,0,0,1,327.46,116.92Z"/><path class="cls-36" d="M315.31,101a2.13,2.13,0,0,1,2.12,2.12v1.52a2.12,2.12,0,0,1-4.24,0V103.1a2.13,2.13,0,0,1,2.12-2.12m0-1.6a3.73,3.73,0,0,0-3.72,3.72v1.52a3.72,3.72,0,1,0,7.44,0V103.1a3.73,3.73,0,0,0-3.72-3.72Z"/><path class="cls-36" d="M318,108.26a2.55,2.55,0,0,1,2.55,2.55V113a.56.56,0,0,1-.56.56h-9.32a.56.56,0,0,1-.56-.56v-2.2a2.55,2.55,0,0,1,2.54-2.55H318m0-1.61h-5.35a4.16,4.16,0,0,0-4.15,4.16V113a2.17,2.17,0,0,0,2.17,2.16H320a2.17,2.17,0,0,0,2.17-2.16v-2.2a4.17,4.17,0,0,0-4.16-4.16Z"/><path class="cls-36" d="M302.33,117a.54.54,0,0,0,.85.14l2.63-2.38a.83.83,0,0,0,.12-1,.54.54,0,0,0-.85-.14L302.45,116A.83.83,0,0,0,302.33,117Z"/><path class="cls-36" d="M315,122.34a.68.68,0,0,1-.72-.63v-3.37a.73.73,0,0,1,1.44,0v3.37A.68.68,0,0,1,315,122.34Z"/><path class="cls-37" d="M415.9,131.5v0a2.46,2.46,0,0,0-1.13-1.68l-6.8-4.44a.46.46,0,0,0-.16-.07,2.52,2.52,0,0,0-1.17-.3,2.92,2.92,0,0,0-2,.65l0,0-2.12,2h-.05l-.32-.09A4.73,4.73,0,0,1,401,127a17,17,0,0,1-2-1.4,34.44,34.44,0,0,1-5.08-5.56,14.66,14.66,0,0,1-1.2-2.1,6.59,6.59,0,0,1-.51-1.49s0,0,0,0v0l1.81-1.65a2.94,2.94,0,0,0,.86-1.45,2.38,2.38,0,0,0-.16-1.71l-3.54-7.52,0,0a3.08,3.08,0,0,0-.73-.87,2,2,0,0,0-1.2-.45,2.2,2.2,0,0,0-1.64.62l-5,4.57a3.28,3.28,0,0,0-.81,1,4.22,4.22,0,0,0-.44,1.21s0,.06,0,.08,0,.29-.07.69a9.67,9.67,0,0,0,.07,1.94,19.1,19.1,0,0,0,.58,2.84,23.47,23.47,0,0,0,1.4,3.68,34.47,34.47,0,0,0,2.53,4.42,40.52,40.52,0,0,0,4,5.05,38.89,38.89,0,0,0,5.88,5.43,33.74,33.74,0,0,0,5,3.06,17.64,17.64,0,0,0,3.86,1.37A16.91,16.91,0,0,0,407,139h.78a4.45,4.45,0,0,0,1.24-.32,3.57,3.57,0,0,0,1.07-.71l5-4.55A2.32,2.32,0,0,0,415.9,131.5Zm-1.65,1-5,4.56,0,0a2.16,2.16,0,0,1-.68.44,2.63,2.63,0,0,1-.83.22h-.21a2.62,2.62,0,0,1-.41,0,17.13,17.13,0,0,1-2.12-.32,16.75,16.75,0,0,1-3.56-1.29,31,31,0,0,1-4.83-2.93,37.41,37.41,0,0,1-5.68-5.26,39.49,39.49,0,0,1-3.92-4.88,34.6,34.6,0,0,1-2.44-4.26,21.87,21.87,0,0,1-1.32-3.48,19.08,19.08,0,0,1-.55-2.65,8.33,8.33,0,0,1-.06-1.66c0-.36.06-.59.07-.7a2.82,2.82,0,0,1,.3-.8,2.1,2.1,0,0,1,.52-.65l5-4.6a1,1,0,0,1,.72-.28.66.66,0,0,1,.44.16,2.07,2.07,0,0,1,.43.5l3.53,7.51a1.12,1.12,0,0,1,.08.83,1.62,1.62,0,0,1-.48.82l-1.85,1.69a1.24,1.24,0,0,0-.31.47,1.86,1.86,0,0,0-.11.47.49.49,0,0,0,0,.12,7.07,7.07,0,0,0,.62,1.94,16.51,16.51,0,0,0,1.29,2.27,24.93,24.93,0,0,0,2.5,3.07,23.44,23.44,0,0,0,2.86,2.79,17.66,17.66,0,0,0,2.14,1.51,6.07,6.07,0,0,0,1.44.65l.45.11.12,0a1.17,1.17,0,0,0,.45-.07,1.25,1.25,0,0,0,.5-.26l2.14-2a1.61,1.61,0,0,1,1.1-.36,1.34,1.34,0,0,1,.64.16.61.61,0,0,0,.14.07l6.68,4.37a1.17,1.17,0,0,1,.58.78A1,1,0,0,1,414.25,132.5Z"/><path class="cls-37" d="M404.76,118.73l1.58-.57a6.58,6.58,0,0,0-5.46-5.28l-.6,1.61a4.84,4.84,0,0,1,3.25,1.57A4.75,4.75,0,0,1,404.76,118.73Z"/><path class="cls-37" d="M409.92,109.88a14,14,0,0,1,3.08,5.55l1.54-.56a15.07,15.07,0,0,0-10.44-10.41l-.58,1.53A13.28,13.28,0,0,1,409.92,109.88Z"/><path class="cls-37" d="M407,113.08a9.27,9.27,0,0,1,2.2,4.16l1.58-.56a10.93,10.93,0,0,0-2.55-4.73,11.13,11.13,0,0,0-5.52-3.24l-.59,1.56A9.3,9.3,0,0,1,407,113.08Z"/><circle class="cls-38" cx="381.19" cy="110.84" r="6.38"/><rect class="cls-34" x="377.89" y="110.63" width="7" height="0.99"/><path class="cls-36" d="M468.45,127.55a12.84,12.84,0,1,0,1-11.89l-.09.14-.15,0-.13,0h-5.28a.72.72,0,0,0,0,1.44h4.8l-.14.34a12.5,12.5,0,0,0-.91,3.31l0,.2H454.27a.72.72,0,1,0,0,1.44h13.17v.24a12.68,12.68,0,0,0,.37,3l.08.3H458a.72.72,0,1,0,0,1.44h10.38Zm11.82-16.38A11.39,11.39,0,1,1,469.79,127l0-.07,0-.08a.67.67,0,0,0,0-.18.73.73,0,0,0-.32-.6l-.07,0,0-.08a11.24,11.24,0,0,1-.52-3.41A11.4,11.4,0,0,1,480.27,111.17Z"/><path class="cls-36" d="M492.49,111.54l-.16-.18,1.12-1,1.09,1.14a.77.77,0,0,0,.51.22h0a.7.7,0,0,0,.5-.2.68.68,0,0,0,.22-.5.74.74,0,0,0-.2-.51l-3.15-3.29a.72.72,0,1,0-1,1l1.06,1.11-1.15,1-.16-.14a16.55,16.55,0,0,0-9.94-4.09H481v-1.45h2.83a.72.72,0,0,0,.72-.72v-3.28a.72.72,0,0,0-.72-.72h-7.11a.72.72,0,0,0-.72.72v3.28a.72.72,0,0,0,.72.72h2.84v1.45h-.23a16.45,16.45,0,0,0-12,6.28h1.88a15,15,0,1,1-1.27,18.72h-1.71a16.46,16.46,0,0,0,30.53-8.56A16.4,16.4,0,0,0,492.49,111.54Zm-15.06-8.32v-1.85h5.68v1.85Z"/><path class="cls-36" d="M480.21,125.31a3,3,0,0,0,3-3,2.79,2.79,0,0,0-.07-.64l0-.17.15-.09,4.7-2.72a.74.74,0,0,0,.34-.44.71.71,0,0,0-.08-.55.72.72,0,0,0-1-.26l-4.85,2.82-.13-.12a3,3,0,1,0-2,5.12Zm0-4.47a1.52,1.52,0,1,1-1.51,1.52A1.52,1.52,0,0,1,480.21,120.84Z"/><path class="cls-32" d="M561.37,134.91a15.14,15.14,0,0,0-4.17-8.22,16.75,16.75,0,0,0-4.1.57c-.8-1.48-1-4-1-6.51s.22-5,1-6.52a16.3,16.3,0,0,0,4.1.58,15.17,15.17,0,0,0,4.17-8.22,15.91,15.91,0,0,0-6.73-4.76c-2.91,2-7.84,8.18-8,19.29.18,11.11,5.87,16.37,8.77,18.43C558.21,138.69,560.35,136.23,561.37,134.91Z"/><rect class="cls-38" x="555.56" y="110.92" width="37.59" height="20.33" rx="0.59" transform="translate(453.27 695.44) rotate(-90)"/><rect class="cls-39" x="560.82" y="111.93" width="26.44" height="14.42" rx="0.59" transform="translate(454.9 693.18) rotate(-90)"/><circle class="cls-40" cx="574.23" cy="135.51" r="1.37"/><path class="cls-34" d="M573.87,116.19a1.45,1.45,0,0,1,1.49,1.37v1a1.5,1.5,0,0,1-3,0v-1a1.44,1.44,0,0,1,1.49-1.37m0-.83a2.31,2.31,0,0,0-2.4,2.2v1a2.4,2.4,0,0,0,4.79,0v-1a2.3,2.3,0,0,0-2.39-2.2Z"/><path class="cls-34" d="M575.75,120.88a1.72,1.72,0,0,1,1.79,1.64v1.41a.39.39,0,0,1-.4.37h-6.55a.39.39,0,0,1-.4-.37v-1.41a1.72,1.72,0,0,1,1.79-1.64h3.77m0-.83H572a2.6,2.6,0,0,0-2.7,2.47v1.41a1.26,1.26,0,0,0,1.31,1.2h6.55a1.26,1.26,0,0,0,1.31-1.2v-1.41a2.59,2.59,0,0,0-2.7-2.47Z"/><polygon class="cls-32" points="667.46 111.2 650.59 111.62 650.49 106.67 667.37 106.26 667.46 111.2"/><line class="cls-32" x1="642.82" y1="118.7" x2="640.64" y2="136.25"/><line class="cls-32" x1="667.47" y1="111.79" x2="666.67" y2="132.99"/><ellipse class="cls-32" cx="635.42" cy="136.18" rx="5.47" ry="3.67" transform="translate(-14.09 157.05) rotate(-13.94)"/><ellipse class="cls-32" cx="661.26" cy="133.41" rx="5.47" ry="3.67" transform="translate(-12.67 163.19) rotate(-13.94)"/><circle class="cls-38" cx="640.79" cy="109.46" r="9.6"/><line class="cls-32" x1="638.75" y1="105.94" x2="638.75" y2="112.92"/><line class="cls-32" x1="642.54" y1="105.94" x2="642.54" y2="112.92"/><line class="cls-32" x1="736.79" y1="123.61" x2="731.26" y2="113.33"/><path class="cls-32" d="M739.13,133.88a12.23,12.23,0,0,0-7.38-2.79,17.43,17.43,0,0,0-2.68,2.82c-1.37-.47-2.87-2-4.19-3.57s-2.51-3.37-2.7-4.81a17.31,17.31,0,0,0,3.28-2.08,12.15,12.15,0,0,0-1.31-7.79,15.09,15.09,0,0,0-7.42,1c-1,3-1.37,10,4.37,17.21,6,7,12.93,7,16.13,6.6A12.21,12.21,0,0,0,739.13,133.88Z"/><path class="cls-32" d="M721.17,111.71a18.6,18.6,0,1,1,21.45,28.46"/><line class="cls-32" x1="736.1" y1="122.9" x2="742.8" y2="119.13"/><line class="cls-32" x1="736.64" y1="110.23" x2="736.64" y2="106.39"/><line class="cls-32" x1="748.35" y1="121.07" x2="752.19" y2="121.07"/><line class="cls-32" x1="744.24" y1="113.8" x2="747.23" y2="111.39"/><line class="cls-32" x1="746.37" y1="129.52" x2="749.52" y2="131.71"/><text class="cls-12" transform="translate(44.74 161.26)"><tspan xml:space="preserve">Home                    Call Center               Messages                   Contacts                                               </tspan><tspan class="cls-13" x="404.62" y="0"> </tspan><tspan class="cls-14" x="406.86" y="0">Time </tspan><tspan class="cls-15" x="431.53" y="0">F</tspan><tspan class="cls-16" x="437.03" y="0">r</tspan><tspan class="cls-14" x="440.2" y="0" xml:space="preserve">ames                  Phones                                                   Call His</tspan><tspan class="cls-17" x="698.55" y="0">t</tspan><tspan class="cls-18" x="701.66" y="0">o</tspan><tspan class="cls-19" x="707.26" y="0">r</tspan><tspan class="cls-18" x="710.71" y="0">y</tspan></text><text class="cls-12" transform="translate(370.49 161.26)">Answering<tspan x="10.92" y="12">Rules</tspan></text><text class="cls-12" transform="translate(628.84 161.26)">Music on<tspan x="9.83" y="12">Hold</tspan></text><path class="cls-30" d="M131.92,222.6c3.17,0,5.22-2.37,5.22-6s-2.19-6.46-5.22-6.46-5.23,2.72-5.23,6.46S128.74,222.6,131.92,222.6Zm0-11c2.17,0,3.68,2,3.68,4.92s-1.37,4.51-3.68,4.51-3.69-1.68-3.69-4.51S129.75,211.63,131.92,211.63Z"/><path class="cls-30" d="M131.88,223.88c-6.66,0-10.64,2.61-10.64,7V241a4.45,4.45,0,0,0,4.44,4.45h.17v2.26a.74.74,0,1,0,1.48,0V234.57a.74.74,0,1,0-1.48,0V244h-.17a3,3,0,0,1-3-3V230.86c0-5.12,7-5.52,9.17-5.52s9.18.4,9.18,5.52V241a3,3,0,0,1-3,3h-.22v-9.41a.74.74,0,1,0-1.48,0v13.14a.74.74,0,0,0,1.48,0v-2.26h.22a4.46,4.46,0,0,0,4.45-4.45V230.86C142.53,226.49,138.55,223.88,131.88,223.88Z"/><path class="cls-30" d="M158.07,231.07c0-4.38-4-7-10.65-7a18,18,0,0,0-5.42.74c.21.43.42.89.61,1.37a17.49,17.49,0,0,1,4.81-.64c2.16,0,9.18.39,9.18,5.52v10.14a3,3,0,0,1-3,3h-.22v-9.41a.74.74,0,0,0-1.48,0v13.13a.74.74,0,0,0,1.48,0v-2.26h.22a4.45,4.45,0,0,0,4.45-4.44Z"/><path class="cls-30" d="M147.52,222.67c3.18,0,5.23-2.37,5.23-6s-2.2-6.46-5.23-6.46-5.22,2.72-5.22,6.46S144.35,222.67,147.52,222.67Zm0-11c2.17,0,3.69,2,3.69,4.92s-1.38,4.51-3.69,4.51-3.68-1.68-3.68-4.51S145.35,211.7,147.52,211.7Z"/><path class="cls-32" d="M328.75,230.22v13.65H292.34V222a1.83,1.83,0,0,1,1.82-1.82h8.2"/><path class="cls-32" d="M289.61,243.87h41.87a0,0,0,0,1,0,0v1.46a4,4,0,0,1-4,4H293.61a4,4,0,0,1-4-4v-1.46A0,0,0,0,1,289.61,243.87Z"/><line class="cls-32" x1="308.73" y1="246.6" x2="313.28" y2="246.6"/><path class="cls-32" d="M304.18,222.93v-9.1a2.73,2.73,0,0,1,2.73-2.73h21.84a2.73,2.73,0,0,1,2.73,2.73v11.84a2.73,2.73,0,0,1-2.73,2.73h-7.28L314.83,235a.91.91,0,0,1-1.55-.64v-6h-3.64"/><path class="cls-32" d="M311.46,242.05v-2.37c0-2.54-5.25-4-7.28-4s-7.29,1.46-7.29,4v2.37"/><path class="cls-32" d="M304.18,224.75a3.64,3.64,0,0,0-3.64,3.63v1a3.64,3.64,0,0,0,7.28,0v-1A3.64,3.64,0,0,0,304.18,224.75Z"/><line class="cls-32" x1="315.55" y1="220.2" x2="316.46" y2="220.2"/><line class="cls-32" x1="317.38" y1="220.2" x2="318.29" y2="220.2"/><line class="cls-32" x1="319.2" y1="220.2" x2="320.11" y2="220.2"/><path class="cls-36" d="M380,230.51a2,2,0,0,1,2,2v1.41a2,2,0,0,1-2,2h0a2,2,0,0,1-2-2v-1.41a2,2,0,0,1,2-2h0m0-1.49a3.46,3.46,0,0,0-3.46,3.45v1.41a3.46,3.46,0,1,0,6.92,0v-1.41A3.47,3.47,0,0,0,380,229Z"/><path class="cls-36" d="M382.47,237.26a2.38,2.38,0,0,1,2.37,2.37v2a.52.52,0,0,1-.52.52h-8.66a.52.52,0,0,1-.52-.52v-2a2.37,2.37,0,0,1,2.37-2.37h5m0-1.49h-5a3.86,3.86,0,0,0-3.86,3.86v2a2,2,0,0,0,2,2h8.66a2,2,0,0,0,2-2v-2a3.86,3.86,0,0,0-3.86-3.86Z"/><path class="cls-36" d="M393.44,236.33a2,2,0,0,1,2,2v1.41a2,2,0,1,1-3.93,0V238.3a2,2,0,0,1,2-2m0-1.49A3.46,3.46,0,0,0,390,238.3v1.41a3.46,3.46,0,1,0,6.91,0V238.3a3.46,3.46,0,0,0-3.46-3.46Z"/><path class="cls-36" d="M395.92,243.09a2.37,2.37,0,0,1,2.37,2.36v2.05a.52.52,0,0,1-.52.52h-8.66a.52.52,0,0,1-.52-.52v-2.05a2.37,2.37,0,0,1,2.37-2.36h5m0-1.49h-5a3.86,3.86,0,0,0-3.86,3.85v2.05a2,2,0,0,0,2,2h8.66a2,2,0,0,0,2-2v-2.05a3.86,3.86,0,0,0-3.86-3.85Z"/><path class="cls-36" d="M407.61,230.51a2,2,0,0,1,2,2v1.41a2,2,0,1,1-3.93,0v-1.41a2,2,0,0,1,2-2m0-1.49a3.46,3.46,0,0,0-3.45,3.45v1.41a3.46,3.46,0,1,0,6.91,0v-1.41a3.46,3.46,0,0,0-3.46-3.45Z"/><path class="cls-36" d="M410.1,237.26a2.38,2.38,0,0,1,2.37,2.37v2a.52.52,0,0,1-.53.52h-8.65a.52.52,0,0,1-.53-.52v-2a2.38,2.38,0,0,1,2.37-2.37h5m0-1.49h-5a3.86,3.86,0,0,0-3.86,3.86v2a2,2,0,0,0,2,2h8.65a2,2,0,0,0,2-2v-2a3.87,3.87,0,0,0-3.86-3.86Z"/><path class="cls-36" d="M406.21,227.55a.75.75,0,0,1-1,.15l-3.2-2.41a.74.74,0,1,1,.89-1.19l3.2,2.41A.74.74,0,0,1,406.21,227.55Z"/><path class="cls-36" d="M381.12,227.63a.74.74,0,0,0,1,.15l3.2-2.41a.75.75,0,1,0-.9-1.19l-3.2,2.41A.75.75,0,0,0,381.12,227.63Z"/><path class="cls-36" d="M393.44,232.76a.67.67,0,0,1-.66-.67v-3.58a.67.67,0,1,1,1.33,0v3.58A.67.67,0,0,1,393.44,232.76Z"/><path class="cls-34" d="M396.71,224.44v0a1.08,1.08,0,0,0,.09-.87l-1-3.33,0-.06a1.06,1.06,0,0,0-.31-.41,1.2,1.2,0,0,0-.83-.32h0l-1.24.09h0l-.08-.12a2.07,2.07,0,0,1-.22-.47,7.72,7.72,0,0,1-.27-1,10.8,10.8,0,0,1-.15-1.62,9.34,9.34,0,0,1,0-1.62,6,6,0,0,1,.19-1,2.44,2.44,0,0,1,.25-.64h0l1.06-.07a1.36,1.36,0,0,0,.68-.26,1,1,0,0,0,.41-.62l.92-3.5v0a1.34,1.34,0,0,0,0-.49.89.89,0,0,0-.27-.48.94.94,0,0,0-.71-.23l-2.91.21a1.4,1.4,0,0,0-.55.12,2,2,0,0,0-.47.29l0,0-.21.21a4.5,4.5,0,0,0-.52.67,8.7,8.7,0,0,0-.59,1.12,10.47,10.47,0,0,0-.56,1.62,14.54,14.54,0,0,0-.39,2.18,17.85,17.85,0,0,0-.07,2.79,16.72,16.72,0,0,0,.43,3.41,13.52,13.52,0,0,0,.81,2.39,7.49,7.49,0,0,0,.89,1.5,8.8,8.8,0,0,0,.66.74l.1.09.07.05.06,0,0,0a1.56,1.56,0,0,0,.49.22,1.32,1.32,0,0,0,.55.05l2.91-.19A1,1,0,0,0,396.71,224.44Zm-.82-.1-2.91.19h0a1.08,1.08,0,0,1-.35,0,1.43,1.43,0,0,1-.33-.15l-.07,0-.14-.11a6.35,6.35,0,0,1-.6-.68,6.44,6.44,0,0,1-.82-1.39,13,13,0,0,1-.77-2.29,16.32,16.32,0,0,1-.42-3.3,17.93,17.93,0,0,1,.07-2.7,14.58,14.58,0,0,1,.37-2.1,10.37,10.37,0,0,1,.53-1.53,8.74,8.74,0,0,1,.55-1,3.4,3.4,0,0,1,.44-.58l.21-.22a1.42,1.42,0,0,1,.32-.19.94.94,0,0,1,.36-.08l2.92-.2a.4.4,0,0,1,.31.09.28.28,0,0,1,.1.17.94.94,0,0,1,0,.29l-.92,3.49a.5.5,0,0,1-.2.3.73.73,0,0,1-.39.15l-1.07.07a.53.53,0,0,0-.23.08.59.59,0,0,0-.17.13l0,0a3.33,3.33,0,0,0-.33.82,7.19,7.19,0,0,0-.2,1.12,9.3,9.3,0,0,0,0,1.71,10.83,10.83,0,0,0,.16,1.71,7.31,7.31,0,0,0,.29,1.08,2.69,2.69,0,0,0,.29.61l.12.16,0,0a.57.57,0,0,0,.16.09.55.55,0,0,0,.24.05l1.25-.1a.69.69,0,0,1,.46.17.7.7,0,0,1,.17.23.14.14,0,0,0,0,.06l1,3.27a.54.54,0,0,1,0,.42A.45.45,0,0,1,395.89,224.34Z"/><path class="cls-41" d="M396.58,217.13l.68.23a2.89,2.89,0,0,0,.36-1.53,2.74,2.74,0,0,0-.7-1.72l-.63.38a2.09,2.09,0,0,1,.29,2.64Z"/><path class="cls-41" d="M400.72,215.52a6.08,6.08,0,0,1-.52,2.7l.66.23a6.66,6.66,0,0,0,.57-3,6.38,6.38,0,0,0-1.12-3.34l-.61.36A5.64,5.64,0,0,1,400.72,215.52Z"/><path class="cls-41" d="M398.87,215.81a4.08,4.08,0,0,1-.43,2l.67.23a4.75,4.75,0,0,0,.47-2.28,4.62,4.62,0,0,0-.92-2.58l-.62.37A4,4,0,0,1,398.87,215.81Z"/><path class="cls-32" d="M733.89,224.42c18.76,3.54,16.21,19,16.21,19"/><path class="cls-32" d="M734.83,224.42c-18.77,3.54-16.21,19-16.21,19"/><line class="cls-32" x1="733.99" y1="218.54" x2="733.99" y2="243.15"/><rect class="cls-32" x="730.4" y="211.57" width="6.9" height="6.9"/><rect class="cls-32" x="714.66" y="242.72" width="6.9" height="6.9"/><rect class="cls-32" x="746.49" y="243.15" width="6.9" height="6.9"/><rect class="cls-32" x="730.4" y="243.22" width="6.9" height="6.9"/><path class="cls-30" d="M238.69,249.4H214.57a2.32,2.32,0,0,1-2.32-2.32V218.53a2.32,2.32,0,0,1,2.32-2.32h3.65a.68.68,0,1,1,0,1.35h-3.65a1,1,0,0,0-1,1v28.55a1,1,0,0,0,1,1h24.12a1,1,0,0,0,1-1V218.53a1,1,0,0,0-1-1h-4.06a.68.68,0,1,1,0-1.35h4.06a2.32,2.32,0,0,1,2.32,2.32v28.55A2.32,2.32,0,0,1,238.69,249.4Z"/><path class="cls-30" d="M223.85,225.06v5.82H218v-5.82h5.81m0-1.36H218a1.36,1.36,0,0,0-1.36,1.36v5.82a1.36,1.36,0,0,0,1.36,1.35h5.81a1.36,1.36,0,0,0,1.36-1.35v-5.82a1.36,1.36,0,0,0-1.36-1.36Z"/><path class="cls-30" d="M233.77,227.51h-6.24a.68.68,0,0,1,0-1.35h6.24a.68.68,0,1,1,0,1.35Z"/><path class="cls-30" d="M232.13,230.58h-4.6a.68.68,0,0,1,0-1.35h4.6a.68.68,0,1,1,0,1.35Z"/><path class="cls-30" d="M233.77,237.75h-6.24a.68.68,0,0,1,0-1.35h6.24a.68.68,0,1,1,0,1.35Z"/><path class="cls-30" d="M232.13,240.82h-4.6a.68.68,0,0,1,0-1.35h4.6a.68.68,0,1,1,0,1.35Z"/><path class="cls-30" d="M223.85,236.39v5.81H218v-5.81h5.81m0-1.36H218a1.36,1.36,0,0,0-1.36,1.36v5.81a1.36,1.36,0,0,0,1.36,1.36h5.81a1.36,1.36,0,0,0,1.36-1.36v-5.81a1.36,1.36,0,0,0-1.36-1.36Z"/><path class="cls-30" d="M226.43,208.68a4.2,4.2,0,0,1,4.18,4.19v2h4v4.61H218.22v-4.61h4v-2a4.21,4.21,0,0,1,4.19-4.19m0-1.35a5.54,5.54,0,0,0-5.54,5.54v.69h-2.67a1.35,1.35,0,0,0-1.35,1.36v4.61a1.35,1.35,0,0,0,1.35,1.36h16.41a1.35,1.35,0,0,0,1.35-1.36v-4.61a1.35,1.35,0,0,0-1.35-1.36H232v-.69a5.54,5.54,0,0,0-5.53-5.54Z"/><path class="cls-30" d="M226.47,212.13a1.23,1.23,0,1,1-1.23,1.23,1.23,1.23,0,0,1,1.23-1.23m0-1.35a2.58,2.58,0,1,0,2.58,2.58,2.58,2.58,0,0,0-2.58-2.58Z"/><path class="cls-34" d="M220.54,241a.07.07,0,0,0,.09,0l2.6-2.61a0,0,0,0,0,0-.08l-.36-.36a.07.07,0,0,0-.09,0l-2.17,2.18-1.48-1.48a.07.07,0,0,0-.09,0l-.38.38a.07.07,0,0,0,0,.09Z"/><path class="cls-34" d="M220.5,229.3a.08.08,0,0,0,.09,0l2.6-2.61a.05.05,0,0,0,0,0,.08.08,0,0,0,0,0l-.36-.36a.06.06,0,0,0-.08,0l-2.18,2.18L219.09,227a.07.07,0,0,0-.09,0l-.38.38a.07.07,0,0,0,0,.09Z"/><path class="cls-36" d="M570.75,230.48a.81.81,0,0,1-.81.81h-7.56a.81.81,0,0,1,0-1.61h7.56A.8.8,0,0,1,570.75,230.48Z"/><path class="cls-36" d="M566.43,216v29a.81.81,0,1,1-1.61,0V216a.81.81,0,0,1,1.61,0Z"/><path class="cls-36" d="M570.75,245a.81.81,0,0,1-.81.81h-4.32a.81.81,0,0,1,0-1.61h4.32A.8.8,0,0,1,570.75,245Z"/><path class="cls-36" d="M570.75,216a.81.81,0,0,1-.81.81h-4.32a.81.81,0,0,1,0-1.61h4.32A.8.8,0,0,1,570.75,216Z"/><path class="cls-34" d="M555.1,246.21l0,0a1.87,1.87,0,0,0,.19-1.52l-1.64-5.94a.33.33,0,0,0,0-.12,2,2,0,0,0-.52-.76,2.23,2.23,0,0,0-1.45-.62h0l-2.2.06h0l-.15-.21a4.35,4.35,0,0,1-.37-.85,11.7,11.7,0,0,1-.42-1.79,18.28,18.28,0,0,1-.21-2.87,17.17,17.17,0,0,1,.11-2.84,11.17,11.17,0,0,1,.37-1.8,4.61,4.61,0,0,1,.46-1.1l0,0h0l1.87,0a2.08,2.08,0,0,0,1.21-.39,1.79,1.79,0,0,0,.77-1l1.76-6.06a.08.08,0,0,1,0,0,2.49,2.49,0,0,0,0-.86,1.55,1.55,0,0,0-.46-.86,1.67,1.67,0,0,0-1.24-.47l-5.15.09a2.65,2.65,0,0,0-1,.17,3.14,3.14,0,0,0-.85.46l-.05.05-.38.36a7.31,7.31,0,0,0-.94,1.13,14.87,14.87,0,0,0-1.09,1.91,17.63,17.63,0,0,0-1.05,2.8,26.31,26.31,0,0,0-.78,3.78,36.82,36.82,0,0,0,.39,10.94,23.73,23.73,0,0,0,1.33,4.26,13.22,13.22,0,0,0,1.5,2.72,15,15,0,0,0,1.14,1.36l.18.16.12.11.09.07.06,0a3.23,3.23,0,0,0,.87.44,2.73,2.73,0,0,0,1,.14l5.14-.08A1.73,1.73,0,0,0,555.1,246.21Zm-1.44-.26-5.15.07h0a1.35,1.35,0,0,1-.61-.09,2.48,2.48,0,0,1-.59-.28l-.12-.11a2,2,0,0,1-.23-.2,12.3,12.3,0,0,1-1.05-1.25,12.51,12.51,0,0,1-1.38-2.52,23.51,23.51,0,0,1-1.27-4.09,28.37,28.37,0,0,1-.6-5.84,30.28,30.28,0,0,1,.22-4.74,27.07,27.07,0,0,1,.75-3.65,17,17,0,0,1,1-2.64,13.32,13.32,0,0,1,1-1.78,5.92,5.92,0,0,1,.8-1l.39-.36a1.94,1.94,0,0,1,.57-.31,1.55,1.55,0,0,1,.63-.11l5.16-.09a.76.76,0,0,1,.56.2.56.56,0,0,1,.17.31,1.68,1.68,0,0,1,0,.5l-1.76,6a.93.93,0,0,1-.37.51,1.25,1.25,0,0,1-.69.22l-1.9,0a1.18,1.18,0,0,0-.41.12,1.94,1.94,0,0,0-.3.21.35.35,0,0,0-.05.08,5.32,5.32,0,0,0-.62,1.41,12.56,12.56,0,0,0-.41,1.94,27.58,27.58,0,0,0,.11,6,12.55,12.55,0,0,0,.46,1.93,4.51,4.51,0,0,0,.49,1.1l.2.28.06.08a1.22,1.22,0,0,0,.29.18,1,1,0,0,0,.42.1l2.21-.06a1.27,1.27,0,0,1,.81.35.89.89,0,0,1,.28.41,1.17,1.17,0,0,0,0,.11l1.61,5.84a.9.9,0,0,1-.06.74A.76.76,0,0,1,553.66,246Z"/><path class="cls-36" d="M554,233.11l1.06.42a4.31,4.31,0,0,0,.62-2.37,4.37,4.37,0,0,0-1-2.76l-1,.55a3.32,3.32,0,0,1,.95,2.26A3.21,3.21,0,0,1,554,233.11Z"/><path class="cls-36" d="M558.68,230.93a9.58,9.58,0,0,1-.92,4.2l1,.41a10,10,0,0,0,1-4.63,10.23,10.23,0,0,0-1.64-5.35l-1,.51A9.14,9.14,0,0,1,558.68,230.93Z"/><path class="cls-36" d="M556.44,231.24a7,7,0,0,1-.84,3.47l1.18.48a8.32,8.32,0,0,0-.59-8.59l-1.12.6A7,7,0,0,1,556.44,231.24Z"/><path class="cls-36" d="M578.49,210.8a1.65,1.65,0,0,1,1.64,1.65v1.18a1.65,1.65,0,1,1-3.29,0v-1.18a1.65,1.65,0,0,1,1.65-1.65m0-1.25a2.9,2.9,0,0,0-2.9,2.9v1.18a2.9,2.9,0,1,0,5.79,0v-1.18a2.9,2.9,0,0,0-2.89-2.9Z"/><path class="cls-36" d="M580.57,216.46a2,2,0,0,1,2,2v1.71a.44.44,0,0,1-.44.44h-7.25a.44.44,0,0,1-.44-.44v-1.71a2,2,0,0,1,2-2h4.17m0-1.25H576.4a3.24,3.24,0,0,0-3.23,3.24v1.71a1.69,1.69,0,0,0,1.69,1.68h7.25a1.69,1.69,0,0,0,1.69-1.68v-1.71a3.24,3.24,0,0,0-3.23-3.24Z"/><path class="cls-36" d="M578.49,224.67a1.65,1.65,0,0,1,1.64,1.65v1.18a1.65,1.65,0,1,1-3.29,0v-1.18a1.65,1.65,0,0,1,1.65-1.65m0-1.25a2.9,2.9,0,0,0-2.9,2.9v1.18a2.9,2.9,0,1,0,5.79,0v-1.18a2.9,2.9,0,0,0-2.89-2.9Z"/><path class="cls-36" d="M580.57,230.33a2,2,0,0,1,2,2V234a.44.44,0,0,1-.44.44h-7.25a.44.44,0,0,1-.44-.44v-1.71a2,2,0,0,1,2-2h4.17m0-1.25H576.4a3.24,3.24,0,0,0-3.23,3.24V234a1.69,1.69,0,0,0,1.69,1.68h7.25A1.69,1.69,0,0,0,583.8,234v-1.71a3.24,3.24,0,0,0-3.23-3.24Z"/><path class="cls-36" d="M578.3,238.54a1.66,1.66,0,0,1,1.64,1.65v1.18a1.65,1.65,0,1,1-3.29,0v-1.18a1.66,1.66,0,0,1,1.65-1.65m0-1.24a2.9,2.9,0,0,0-2.9,2.89v1.18a2.9,2.9,0,1,0,5.79,0v-1.18a2.9,2.9,0,0,0-2.89-2.89Z"/><path class="cls-36" d="M580.38,244.2a2,2,0,0,1,2,2v1.71a.44.44,0,0,1-.44.44h-7.25a.44.44,0,0,1-.44-.44v-1.71a2,2,0,0,1,2-2h4.16m0-1.25h-4.16a3.24,3.24,0,0,0-3.24,3.24v1.71a1.69,1.69,0,0,0,1.69,1.69h7.25a1.69,1.69,0,0,0,1.69-1.69v-1.71a3.24,3.24,0,0,0-3.23-3.24Z"/><path class="cls-36" d="M673.7,223.35l-4.35-5.13a3.84,3.84,0,0,0-5.4-.45l-2.26,1.76-.13,0c-1.51-.49-6.58-2-9.16-1.66a7.87,7.87,0,0,0-1.33.32l-.08,0-.09,0c-3.81-1.2-5.62-.47-7.07.11l-.06,0a5.62,5.62,0,0,1-2.23.53h-1c-2.44,0-3.09,0-3.61-.4-2.07-1.51-3.77-1.45-5.34.21L628,223.45c-1.66,1.81-.46,4.37.14,5.38L630,232a3.65,3.65,0,0,0,1.12.72l.42.18-1.8,1.77a2.29,2.29,0,0,0,0,3.23l.88.89a2.27,2.27,0,0,0,.85.55l.22.07v.24a2.29,2.29,0,0,0,.57,2.18l.88.9a2.32,2.32,0,0,0,1.62.68,2.27,2.27,0,0,0,.86-.16l.24-.1.13.22a2.4,2.4,0,0,0,.52.83l.88.89a2.34,2.34,0,0,0,2.63.45l.24-.12.15.22a2.56,2.56,0,0,0,.5.77l.88.89a2.34,2.34,0,0,0,3.23,0l.77-.76,1.4,1.17a2.93,2.93,0,0,0,1.25.72l.08,0a3.07,3.07,0,0,0,3.58-.61,3,3,0,0,0,.59-.95l.16-.42.66.62a3,3,0,0,0,1.23.69l.08,0a3.07,3.07,0,0,0,3.57-.61,3,3,0,0,0,.73-1.39l.07-.29.29.06a3,3,0,0,0,4.15-2.87c0-.11,0-.23,0-.38l-.06-.34.33,0h.07a2,2,0,0,0,.48,0,3,3,0,0,0,2.9-3.09,3,3,0,0,0-.95-2.1l-1.06-1,.49-.16a3.76,3.76,0,0,0,1.33-.73l6-6a4.35,4.35,0,0,0,1.41-2.71A3.85,3.85,0,0,0,673.7,223.35Zm-41.45,15a1.1,1.1,0,0,1-.77-.32l-.88-.9a1.07,1.07,0,0,1,0-1.52l4.68-4.61a1.09,1.09,0,0,1,1.53,0l.88.89a1.08,1.08,0,0,1,.2,1.23l0,.07-5.14,5A1.11,1.11,0,0,1,632.25,238.31Zm3.27,3.63a1.08,1.08,0,0,1-.73.3,1,1,0,0,1-.79-.32l-.89-.89a1.08,1.08,0,0,1,0-1.52l.37-.36a4.48,4.48,0,0,0,.36-.29l4.68-4.61a2.69,2.69,0,0,0,.27-.32l.49-.49a1.09,1.09,0,0,1,1.52,0l.88.89a1.11,1.11,0,0,1,.31.77,1.07,1.07,0,0,1-.32.76Zm4.25,2.36a1.11,1.11,0,0,1-1.53,0l-.88-.9a1.08,1.08,0,0,1,0-1.52l4.26-4.2a1.12,1.12,0,0,1,1.53,0l.88.9a1.07,1.07,0,0,1,0,1.52Zm6.48.15-2.09,2.06a1.07,1.07,0,0,1-1.52,0l-.88-.9a1.09,1.09,0,0,1,0-1.53l2.09-2a1.07,1.07,0,0,1,1.52,0l.88.89a1.09,1.09,0,0,1,0,1.53Zm19.45-5.67a2,2,0,0,1-2,2.11,1.56,1.56,0,0,1-.43,0l-.07,0a1.89,1.89,0,0,1-.32-.24c-3.18-3-5.14-4.88-5.83-5.59L657,235l-.12,0a.85.85,0,0,0-.43-.13.73.73,0,0,0-.74.71l.3.63,5.37,5a2.11,2.11,0,0,1,.64,1.43,2.05,2.05,0,0,1-2.41,2.09l-.07,0a2,2,0,0,1-.32-.24l-.24-.26a3.19,3.19,0,0,0-.74-1.1l-4.89-4.24-.12-.05a.82.82,0,0,0-.31-.07.73.73,0,0,0-.74.71.71.71,0,0,0,.29.56l.19.15v0l4.88,4.34,0,.09a1.59,1.59,0,0,1,0,.36,2,2,0,0,1-.55,1.47,2,2,0,0,1-1.86.62l-.07,0-.32-.24-2.15-2c-1.15-1.27-1.57-1.71-1.72-1.85a.75.75,0,0,0-1.34.43.71.71,0,0,0,.44.65l.07.05,1.12,1,0,.07a2,2,0,0,1-2,2.56,2.31,2.31,0,0,1-.37,0l-.1,0a2.17,2.17,0,0,1-.3-.23l-1.86-1.58.48-.47a2.28,2.28,0,0,0,0-3.23l-.88-.9a2.43,2.43,0,0,0-.73-.5l-.24-.1.06-.26a2.31,2.31,0,0,0-.43-2.59l-.88-.89a2.28,2.28,0,0,0-.8-.53l-.23-.09,0-.25a2.79,2.79,0,0,0,.17-.85,2.28,2.28,0,0,0-.66-1.62l-.88-.9a2.31,2.31,0,0,0-1.61-.68,2.18,2.18,0,0,0-.63.09l-.22.06-.13-.21a2.3,2.3,0,0,0-.52-.84l-.88-.9a2.32,2.32,0,0,0-1.62-.68,2.24,2.24,0,0,0-1.61.66l-1.52,1.49h-.09l-.2,0a2.34,2.34,0,0,1-1.53-.56l-.06-.07-1.9-3.23c-.65-1.35-1-2.3-.07-3.3l3.54-4.82c.92-1,1.73-1.25,3.41,0,.91.67,2.12.67,4.54.69h1a7.21,7.21,0,0,0,2.86-.67,6.68,6.68,0,0,1,3.55-.62l.91.09-.79.47a10.35,10.35,0,0,0-3.9,3.69,3.1,3.1,0,0,0-.06,3c1.21,2.23,3.7,1.21,5.71.39,1.73-.71,3-1.17,3.58-.58,2.84,2.89,9.28,9.32,9.88,9.62l.06,0,1.73,1.61A2,2,0,0,1,665.7,238.78Zm7.36-12.66a2.78,2.78,0,0,1-.92,1.77l-6,6.05a2.34,2.34,0,0,1-1.5.54,2.45,2.45,0,0,1-1.19-.31l-1.37-1.3-7.62-7.82a2.35,2.35,0,0,0-1.77-.71,9.77,9.77,0,0,0-3.41,1c-2.58,1.06-3.42,1.12-3.88.28a1.73,1.73,0,0,1,.08-1.67c1.1-2.17,5.11-4.36,7.14-4.63,2.2-.3,7.27,1.17,9,1.77l.4.13,2.87-2.29a2.41,2.41,0,0,1,1.72-.55,2.35,2.35,0,0,1,1.61.83l4.35,5.13A2.37,2.37,0,0,1,673.06,226.12Z"/><path class="cls-30" d="M66.19,241.46l-.09.17H60.68l.1-.41a28.49,28.49,0,0,0,.77-5.36l-1.73-2.19H53v-6.86h2.42l-.26-1.11H53L53,217.61h-.51a16.68,16.68,0,0,0-14.36,8.28.66.66,0,0,0-.1.17,16.61,16.61,0,0,0,0,16.31,1,1,0,0,0,.09.16,16.73,16.73,0,0,0,14.4,8.33h.22A16.62,16.62,0,0,0,69,236.11l-1.27,1A15.48,15.48,0,0,1,66.19,241.46Zm-26.31-16.3a15.76,15.76,0,0,1,7.57-5.62l1.19-.41-.83,1a15.93,15.93,0,0,0-2.89,5.38l-.07.24H39.5ZM37,233.31A15.31,15.31,0,0,1,38.75,227l.09-.18h5.68l-.1.42a28.35,28.35,0,0,0-.79,6.11v.33H37Zm1.77,8.15A15.39,15.39,0,0,1,37,235.13l0-.35h6.66v.32a28.45,28.45,0,0,0,.79,6.12l.1.41H38.84Zm8.7,7.44a15.7,15.7,0,0,1-7.57-5.62l-.38-.54h5.35l.07.24a15.93,15.93,0,0,0,2.89,5.38l.83.95Zm4.46.8-.43-.13c-2.11-.61-4-2.88-5.26-6.37l-.17-.46h5.86Zm0-8.07h-6.2l-.07-.24a26.94,26.94,0,0,1-.9-6.27v-.34h7.18Zm0-8H44.73v-.35a26.86,26.86,0,0,1,.9-6.26l.07-.25h6.2Zm0-8H46.05l.17-.46c1.28-3.49,3.15-5.76,5.26-6.37l.43-.13ZM53,234.78h7.45v.34a27,27,0,0,1-.91,6.27l-.06.24H53Zm.4,14.86-.4.09v-7h6.12l-.16.46C57.66,246.82,55.63,249.16,53.43,249.64Zm11.63-6.36a15.77,15.77,0,0,1-7.19,5.48l-1.21.46.84-1A16,16,0,0,0,60.28,243l.08-.24h5.08Z"/><path class="cls-30" d="M65.55,234.79c.33-.49,8-11.87,8-16.34a8.47,8.47,0,0,0-16.93,0c0,4.48,7.68,15.85,8,16.34A.58.58,0,0,0,65.55,234.79Zm-.46-23.69a7.36,7.36,0,0,1,7.36,7.35c0,2.77-3.66,9.36-7.07,14.6l-.29.43-.28-.43c-3.42-5.24-7.07-11.83-7.07-14.6A7.36,7.36,0,0,1,65.09,211.1Z"/><path class="cls-30" d="M68.89,218.71A3.85,3.85,0,1,0,65,222.56,3.85,3.85,0,0,0,68.89,218.71Zm-6.59,0A2.74,2.74,0,1,1,65,221.45,2.74,2.74,0,0,1,62.3,218.71Z"/><path class="cls-30" d="M489.41,215.92H474a.7.7,0,1,0,0,1.39h15.42a.7.7,0,0,0,0-1.39Z"/><path class="cls-30" d="M489.41,220H474a.7.7,0,1,0,0,1.39h15.42a.7.7,0,0,0,0-1.39Z"/><rect class="cls-30" x="466.46" y="227.46" width="4.64" height="1.39"/><path class="cls-30" d="M492.35,227.53v3.33a.69.69,0,0,0,.69.69h3.89a.69.69,0,0,0,.69-.69v-3.33a.69.69,0,0,0-.69-.7H493A.69.69,0,0,0,492.35,227.53Zm1.39.69h2.49v1.94h-2.49Z"/><path class="cls-30" d="M500.69,224H495v-12.6a.7.7,0,0,0-.7-.69H468.86a.69.69,0,0,0-.69.69V224H462.7a.69.69,0,0,0-.69.7v16.2a.69.69,0,0,0,.69.7h5.47v6.7a.69.69,0,0,0,.69.69h19.92A.58.58,0,0,0,489,249a.7.7,0,0,0,.23-.15h0l5.47-5.52.07-.09.08-.13a.52.52,0,0,0,0-.21.14.14,0,0,0,0-.06v-1.18h5.74a.7.7,0,0,0,.7-.7v-16.2A.7.7,0,0,0,500.69,224Zm-31.13-11.9h24V224h-24Zm19.95,34.47.08-3.15,3,0Zm4-4.49-4.64-.06h0a.7.7,0,0,0-.69.68l-.11,4.9H469.56V235.49h24Zm6.44-1.87h-5V234.8a.7.7,0,0,0-.7-.7H468.86a.69.69,0,0,0-.69.7v5.45H463.4V225.43H500Z"/><text class="cls-12" transform="translate(35.74 273.08)"><tspan xml:space="preserve">Domains                   Users                       In</tspan><tspan class="cls-21" x="174.68" y="0">v</tspan><tspan x="179.42" y="0">en</tspan><tspan class="cls-17" x="190.08" y="0">t</tspan><tspan x="193.2" y="0">o</tspan><tspan class="cls-22" x="198.8" y="0">r</tspan><tspan x="202.25" y="0" xml:space="preserve">y                Con</tspan><tspan class="cls-23" x="263.5" y="0">f</tspan><tspan x="266.69" y="0">e</tspan><tspan class="cls-24" x="271.86" y="0">r</tspan><tspan x="275.13" y="0" xml:space="preserve">ences            Call Queues                     </tspan><tspan class="cls-25" x="433.32" y="0">F</tspan><tspan class="cls-14" x="438.78" y="0" xml:space="preserve">ax                                                           </tspan><tspan class="cls-26" x="592.47" y="0">P</tspan><tspan class="cls-18" x="598.57" y="0">a</tspan><tspan class="cls-27" x="603.93" y="0">r</tspan><tspan x="607.54" y="0" xml:space="preserve">tners                   Sip</tspan><tspan class="cls-13" x="689.75" y="0"> </tspan><tspan class="cls-28" x="691.98" y="0">T</tspan><tspan class="cls-18" x="697.59" y="0" xml:space="preserve">runks                              </tspan></text><text class="cls-12" transform="translate(549.59 273.08)"><tspan class="cls-26">A</tspan><tspan x="6.19" y="0">u</tspan><tspan class="cls-17" x="11.68" y="0">t</tspan><tspan x="14.8" y="0">o</tspan><tspan class="cls-29" x="-13.76" y="12">A</tspan><tspan x="-7.6" y="12">ttendants</tspan></text></svg>